<svg width="25" height="24" viewBox="0 0 25 24" fill="none" xmlns="http://www.w3.org/2000/svg">
<path d="M12.5 1.99994C10.5222 1.99994 8.58879 2.58643 6.9443 3.68524C5.29981 4.78406 4.01809 6.34584 3.26121 8.1731C2.50433 10.0004 2.3063 12.011 2.69215 13.9508C3.078 15.8906 4.03041 17.6725 5.42894 19.071C6.82746 20.4695 8.60929 21.4219 10.5491 21.8078C12.4889 22.1936 14.4996 21.9956 16.3268 21.2387C18.1541 20.4819 19.7159 19.2001 20.8147 17.5556C21.9135 15.9111 22.5 13.9777 22.5 11.9999C22.5 9.34777 21.4464 6.80423 19.5711 4.92887C17.6957 3.05351 15.1522 1.99994 12.5 1.99994V1.99994ZM18.1155 9.70539L11.3545 16.5236L8.01909 13.1599C7.9558 13.0954 7.92034 13.0085 7.92034 12.9181C7.92034 12.8277 7.9558 12.7409 8.01909 12.6763L8.79364 11.8945C8.82559 11.8622 8.86361 11.8366 8.9055 11.8192C8.9474 11.8017 8.99234 11.7927 9.03773 11.7927C9.08312 11.7927 9.12806 11.8017 9.16996 11.8192C9.21185 11.8366 9.24987 11.8622 9.28182 11.8945L11.3555 13.9854L16.8536 8.43994C16.8857 8.40778 16.9238 8.38226 16.9658 8.36485C17.0078 8.34745 17.0528 8.33848 17.0982 8.33848C17.1436 8.33848 17.1886 8.34745 17.2306 8.36485C17.2725 8.38226 17.3106 8.40778 17.3427 8.43994L18.1164 9.22176C18.18 9.28622 18.2156 9.37319 18.2154 9.46376C18.2152 9.55433 18.1793 9.64117 18.1155 9.70539Z" fill="#00BC40"/>
</svg>
