<svg width="44" height="44" viewBox="0 0 44 44" fill="none" xmlns="http://www.w3.org/2000/svg">
<g clip-path="url(#clip0_1539_9494)">
<path d="M40.2067 13.7388C39.9996 8.82569 35.9562 4.94922 31.0388 4.94922C26.0313 4.94922 21.9485 8.96379 21.864 13.9706L21.5447 32.9065C21.4929 35.9799 23.9701 38.4992 27.044 38.4992H35.5137C38.6422 38.4992 41.1406 35.8933 41.0088 32.7676L40.2067 13.7388Z" fill="url(#paint0_linear_1539_9494)"/>
<path d="M3.79796 13.6707C4.00364 8.79561 8.01573 4.94922 12.8952 4.94922C17.9239 4.94922 22.0005 9.0258 22.0005 14.0545L22.0005 32.9992C22.0005 36.0368 19.538 38.4992 16.5005 38.4992H8.48741C5.35888 38.4992 2.86042 35.8931 2.9923 32.7674L3.79796 13.6707Z" fill="url(#paint1_linear_1539_9494)"/>
<path fill-rule="evenodd" clip-rule="evenodd" d="M1.06727 19.5708C1.49748 18.945 2.35353 18.7865 2.9793 19.2167C5.13611 20.6995 12.2324 23.9247 22.2575 23.9247C32.2835 23.9247 39.0169 20.6997 40.9821 19.2447C41.5925 18.7928 42.4535 18.9212 42.9054 19.5316C43.3573 20.1419 43.2288 21.0029 42.6185 21.4548C40.1266 23.2998 32.8029 26.6747 22.2575 26.6747C11.7111 26.6747 4.06454 23.3 1.42135 21.4828C0.795576 21.0526 0.637049 20.1965 1.06727 19.5708Z" fill="url(#paint2_linear_1539_9494)"/>
<g opacity="0.4">
<path fill-rule="evenodd" clip-rule="evenodd" d="M42.9333 19.5708C42.5031 18.945 41.6471 18.7865 41.0213 19.2167C38.8645 20.6995 31.7682 23.9247 21.7431 23.9247C11.7171 23.9247 4.98368 20.6997 3.01847 19.2447C2.40815 18.7928 1.54707 18.9212 1.0952 19.5316C0.643332 20.1419 0.771781 21.0029 1.3821 21.4548C3.87404 23.2998 11.1977 26.6747 21.7431 26.6747C32.2895 26.6747 39.9361 23.3 42.5793 21.4828C43.205 21.0526 43.3636 20.1965 42.9333 19.5708Z" fill="url(#paint3_radial_1539_9494)" fill-opacity="0.3"/>
<path fill-rule="evenodd" clip-rule="evenodd" d="M42.9333 19.5708C42.5031 18.945 41.6471 18.7865 41.0213 19.2167C38.8645 20.6995 31.7682 23.9247 21.7431 23.9247C11.7171 23.9247 4.98368 20.6997 3.01847 19.2447C2.40815 18.7928 1.54707 18.9212 1.0952 19.5316C0.643332 20.1419 0.771781 21.0029 1.3821 21.4548C3.87404 23.2998 11.1977 26.6747 21.7431 26.6747C32.2895 26.6747 39.9361 23.3 42.5793 21.4828C43.205 21.0526 43.3636 20.1965 42.9333 19.5708Z" fill="url(#paint4_radial_1539_9494)" fill-opacity="0.3"/>
</g>
<g opacity="0.4">
<path fill-rule="evenodd" clip-rule="evenodd" d="M1.06666 19.5708C1.49688 18.945 2.35292 18.7865 2.97869 19.2167C5.1355 20.6995 12.2318 23.9247 22.2569 23.9247C32.2829 23.9247 39.0163 20.6997 40.9815 19.2447C41.5919 18.7928 42.4529 18.9212 42.9048 19.5316C43.3567 20.1419 43.2282 21.0029 42.6179 21.4548C40.126 23.2998 32.8023 26.6747 22.2569 26.6747C11.7105 26.6747 4.06393 23.3 1.42074 21.4828C0.794968 21.0526 0.63644 20.1965 1.06666 19.5708Z" fill="url(#paint5_radial_1539_9494)" fill-opacity="0.3"/>
<path fill-rule="evenodd" clip-rule="evenodd" d="M1.06666 19.5708C1.49688 18.945 2.35292 18.7865 2.97869 19.2167C5.1355 20.6995 12.2318 23.9247 22.2569 23.9247C32.2829 23.9247 39.0163 20.6997 40.9815 19.2447C41.5919 18.7928 42.4529 18.9212 42.9048 19.5316C43.3567 20.1419 43.2282 21.0029 42.6179 21.4548C40.126 23.2998 32.8023 26.6747 22.2569 26.6747C11.7105 26.6747 4.06393 23.3 1.42074 21.4828C0.794968 21.0526 0.63644 20.1965 1.06666 19.5708Z" fill="url(#paint6_radial_1539_9494)" fill-opacity="0.3"/>
</g>
<g filter="url(#filter0_d_1539_9494)">
<path d="M7.69238 23.1293C7.69238 21.003 9.41609 19.2793 11.5424 19.2793H14.1281C16.2544 19.2793 17.9781 21.003 17.9781 23.1293V25.715C17.9781 27.8413 16.2544 29.565 14.1281 29.565H11.5424C9.41609 29.565 7.69238 27.8413 7.69238 25.715V23.1293Z" fill="url(#paint7_linear_1539_9494)"/>
<path d="M8.69238 23.1293C8.69238 21.5553 9.96837 20.2793 11.5424 20.2793H14.1281C15.7021 20.2793 16.9781 21.5553 16.9781 23.1293V25.715C16.9781 27.289 15.7021 28.565 14.1281 28.565H11.5424C9.96837 28.565 8.69238 27.289 8.69238 25.715V23.1293Z" stroke="url(#paint8_radial_1539_9494)" stroke-width="2"/>
</g>
<g filter="url(#filter1_d_1539_9494)">
<path d="M26.3926 23.1293C26.3926 21.003 28.1163 19.2793 30.2426 19.2793H32.8283C34.9546 19.2793 36.6783 21.003 36.6783 23.1293V25.715C36.6783 27.8413 34.9546 29.565 32.8283 29.565H30.2426C28.1163 29.565 26.3926 27.8413 26.3926 25.715V23.1293Z" fill="url(#paint9_linear_1539_9494)"/>
<path d="M27.3926 23.1293C27.3926 21.5553 28.6686 20.2793 30.2426 20.2793H32.8283C34.4023 20.2793 35.6783 21.5553 35.6783 23.1293V25.715C35.6783 27.289 34.4023 28.565 32.8283 28.565H30.2426C28.6686 28.565 27.3926 27.289 27.3926 25.715V23.1293Z" stroke="url(#paint10_radial_1539_9494)" stroke-width="2"/>
</g>
</g>
<defs>
<filter id="filter0_d_1539_9494" x="-0.307617" y="15.2793" width="26.2861" height="26.2852" filterUnits="userSpaceOnUse" color-interpolation-filters="sRGB">
<feFlood flood-opacity="0" result="BackgroundImageFix"/>
<feColorMatrix in="SourceAlpha" type="matrix" values="0 0 0 0 0 0 0 0 0 0 0 0 0 0 0 0 0 0 127 0" result="hardAlpha"/>
<feOffset dy="4"/>
<feGaussianBlur stdDeviation="4"/>
<feComposite in2="hardAlpha" operator="out"/>
<feColorMatrix type="matrix" values="0 0 0 0 0.148194 0 0 0 0 0.235583 0 0 0 0 0.585139 0 0 0 0.13 0"/>
<feBlend mode="normal" in2="BackgroundImageFix" result="effect1_dropShadow_1539_9494"/>
<feBlend mode="normal" in="SourceGraphic" in2="effect1_dropShadow_1539_9494" result="shape"/>
</filter>
<filter id="filter1_d_1539_9494" x="18.3926" y="15.2793" width="26.2861" height="26.2852" filterUnits="userSpaceOnUse" color-interpolation-filters="sRGB">
<feFlood flood-opacity="0" result="BackgroundImageFix"/>
<feColorMatrix in="SourceAlpha" type="matrix" values="0 0 0 0 0 0 0 0 0 0 0 0 0 0 0 0 0 0 127 0" result="hardAlpha"/>
<feOffset dy="4"/>
<feGaussianBlur stdDeviation="4"/>
<feComposite in2="hardAlpha" operator="out"/>
<feColorMatrix type="matrix" values="0 0 0 0 0.148194 0 0 0 0 0.235583 0 0 0 0 0.585139 0 0 0 0.13 0"/>
<feBlend mode="normal" in2="BackgroundImageFix" result="effect1_dropShadow_1539_9494"/>
<feBlend mode="normal" in="SourceGraphic" in2="effect1_dropShadow_1539_9494" result="shape"/>
</filter>
<linearGradient id="paint0_linear_1539_9494" x1="21.4504" y1="15.6742" x2="33.6702" y2="26.761" gradientUnits="userSpaceOnUse">
<stop stop-color="#F0F6F9"/>
<stop offset="1" stop-color="#CDDFF2"/>
</linearGradient>
<linearGradient id="paint1_linear_1539_9494" x1="1.65047" y1="14.0242" x2="17.53" y2="32.0599" gradientUnits="userSpaceOnUse">
<stop stop-color="#F0F6F9"/>
<stop offset="1" stop-color="#CDDFF2"/>
</linearGradient>
<linearGradient id="paint2_linear_1539_9494" x1="22.0003" y1="20.3497" x2="21.7253" y2="27.4997" gradientUnits="userSpaceOnUse">
<stop stop-color="#E3E7F6"/>
<stop offset="1" stop-color="#C7CCDF"/>
</linearGradient>
<radialGradient id="paint3_radial_1539_9494" cx="0" cy="0" r="1" gradientUnits="userSpaceOnUse" gradientTransform="translate(30.8003 24.7497) rotate(177.879) scale(7.43009 40.865)">
<stop stop-color="#ADB6DA"/>
<stop offset="1" stop-color="#626D97" stop-opacity="0"/>
</radialGradient>
<radialGradient id="paint4_radial_1539_9494" cx="0" cy="0" r="1" gradientUnits="userSpaceOnUse" gradientTransform="translate(30.8003 24.7497) rotate(177.879) scale(7.43009 40.865)">
<stop stop-color="#ADB6DA"/>
<stop offset="1" stop-color="#626D97" stop-opacity="0"/>
</radialGradient>
<radialGradient id="paint5_radial_1539_9494" cx="0" cy="0" r="1" gradientUnits="userSpaceOnUse" gradientTransform="translate(13.1997 24.7497) rotate(2.1211) scale(7.43009 40.865)">
<stop stop-color="#ADB6DA"/>
<stop offset="1" stop-color="#626D97" stop-opacity="0"/>
</radialGradient>
<radialGradient id="paint6_radial_1539_9494" cx="0" cy="0" r="1" gradientUnits="userSpaceOnUse" gradientTransform="translate(13.1997 24.7497) rotate(2.1211) scale(7.43009 40.865)">
<stop stop-color="#ADB6DA"/>
<stop offset="1" stop-color="#626D97" stop-opacity="0"/>
</radialGradient>
<linearGradient id="paint7_linear_1539_9494" x1="11.8246" y1="19.2508" x2="15.6746" y2="29.7008" gradientUnits="userSpaceOnUse">
<stop stop-color="#F2F5FF"/>
<stop offset="1" stop-color="#D6DBF1"/>
</linearGradient>
<radialGradient id="paint8_radial_1539_9494" cx="0" cy="0" r="1" gradientUnits="userSpaceOnUse" gradientTransform="translate(16.2246 12.1008) rotate(126.431) scale(14.3554)">
<stop stop-color="white"/>
<stop offset="1" stop-color="white" stop-opacity="0"/>
</radialGradient>
<linearGradient id="paint9_linear_1539_9494" x1="30.5248" y1="19.2508" x2="34.3748" y2="29.7008" gradientUnits="userSpaceOnUse">
<stop stop-color="#F2F5FF"/>
<stop offset="1" stop-color="#D6DBF1"/>
</linearGradient>
<radialGradient id="paint10_radial_1539_9494" cx="0" cy="0" r="1" gradientUnits="userSpaceOnUse" gradientTransform="translate(34.9248 12.1008) rotate(126.431) scale(14.3554)">
<stop stop-color="white"/>
<stop offset="1" stop-color="white" stop-opacity="0"/>
</radialGradient>
<clipPath id="clip0_1539_9494">
<rect width="44" height="44" fill="white"/>
</clipPath>
</defs>
</svg>
