<svg width="48" height="48" viewBox="0 0 48 48" fill="none" xmlns="http://www.w3.org/2000/svg">
<path fill-rule="evenodd" clip-rule="evenodd" d="M44 24.6851V11.2428C43.8229 10.4363 43.5852 9.65919 43.0696 8.98776C42.1441 7.7927 40.932 7.15259 39.4234 7.09876C38.9943 7.08577 38.5644 7.09002 38.1262 7.09434H38.1262L38.1261 7.09435C37.9039 7.09654 37.6795 7.09876 37.452 7.09876V4H34.3214V7.07722H13.6972V4H10.5812V7.09876C10.5182 7.09876 10.4596 7.09792 10.4036 7.09713H10.4036H10.4036H10.4036H10.4035H10.4035H10.4035H10.4034H10.4034H10.4034C10.2988 7.09564 10.2036 7.09429 10.1067 7.09876C9.8484 7.11145 9.58782 7.11327 9.32728 7.1151C8.76393 7.11904 8.20075 7.12299 7.66091 7.23676C5.45575 7.70363 4.00489 9.58187 4.00489 11.8692V26.4821C3.99837 30.7273 3.99837 34.9729 4.00489 39.2187C4.0088 41.5071 5.46065 43.3442 7.65602 43.8727L8.14518 43.9922H24.7093C24.0571 43.307 23.4071 42.6193 22.7595 41.9289C22.6552 41.8301 22.5671 41.7155 22.4983 41.5893C22.2165 40.9785 21.7567 40.8415 21.0963 40.8474C18.0831 40.8744 15.0694 40.8709 12.056 40.8674H12.0552H12.0551H12.055H12.0549H12.0548H12.0547H12.0546H12.0545H12.0545C11.0324 40.8662 10.0104 40.865 8.9885 40.865C7.71668 40.865 7.12968 40.2689 7.12968 38.9966V18.6922H40.8791C40.8791 18.9592 40.8806 19.2258 40.882 19.4921V19.4927V19.4934V19.4941V19.4948V19.4955V19.4961V19.4968V19.4975C40.8856 20.1664 40.8892 20.8333 40.8703 21.4993C40.8605 21.8389 40.9926 22.019 41.245 22.2304C41.8546 22.7429 42.4459 23.2769 43.0376 23.8113L43.0377 23.8113L43.0378 23.8114L43.0378 23.8115L43.0379 23.8115L43.038 23.8116L43.038 23.8117L43.0381 23.8117L43.0382 23.8118C43.2554 24.0079 43.4726 24.2041 43.6908 24.3993C43.7955 24.4894 43.9022 24.5873 44 24.6851ZM13.6796 10.2553H34.3224V13.3276H37.4256V10.2425C37.656 10.2425 37.8828 10.2377 38.1066 10.2329C38.6023 10.2224 39.0838 10.2121 39.5603 10.2553C39.9152 10.2955 40.2433 10.4638 40.483 10.7287C40.7227 10.9935 40.8576 11.3368 40.8625 11.694C40.881 12.5794 40.8769 13.4639 40.8729 14.3574C40.8711 14.7401 40.8693 15.1244 40.8693 15.5112H7.1287V14.7057C7.1287 14.389 7.12761 14.0721 7.12653 13.7552V13.7552V13.7552V13.7552V13.7551V13.7551V13.7551V13.755V13.755C7.12435 13.1211 7.12218 12.4868 7.1287 11.8526C7.13946 10.8856 7.78614 10.2406 8.75175 10.2249C9.13803 10.2197 9.52474 10.2214 9.92405 10.2231C10.1285 10.224 10.3363 10.2249 10.5489 10.2249V13.3295H13.6796V10.2553ZM31.7065 43.7859L31.7067 43.786C32.0303 43.8509 32.3538 43.9159 32.6729 43.9922L34.2353 44C34.5588 43.9217 34.8867 43.8551 35.2147 43.7886L35.2147 43.7886C35.9321 43.643 36.6496 43.4974 37.3209 43.2287C40.5279 41.9466 42.6157 39.5926 43.594 36.2795C43.7286 35.8233 43.8073 35.3497 43.8859 34.8765C43.9221 34.6584 43.9583 34.4403 44 34.2241V32.6581C43.9926 32.6165 43.986 32.5747 43.9795 32.5328C43.9642 32.4357 43.949 32.3385 43.9237 32.2441C43.841 31.9323 43.7703 31.615 43.6996 31.2977L43.6995 31.2975L43.6995 31.2975C43.5403 30.5827 43.381 29.8678 43.0843 29.2158C41.5004 25.7363 38.7943 23.6202 34.9994 23.0281C31.8384 22.5328 28.9768 23.3491 26.5935 25.4691C23.3132 28.3839 22.194 32.0728 23.3377 36.3118C24.2368 39.6445 26.4145 41.9661 29.6234 43.2385C30.2861 43.5008 30.9963 43.6433 31.7065 43.7859ZM38.6528 38.6653C37.2767 40.0528 35.4092 40.8414 33.4555 40.8601L33.4507 40.8641C29.3642 40.8611 26.033 37.5128 26.0398 33.4225C26.0467 29.3323 29.4053 25.9928 33.482 26.0114C35.4356 26.037 37.3002 26.8323 38.6714 28.2247C40.0426 29.6171 40.8097 31.4942 40.8062 33.4488C40.8027 35.4034 40.029 37.2778 38.6528 38.6653ZM9.95898 25.0482V21.97H13.0358V25.0482H9.95898ZM19.3001 25.0532V21.9789H16.2095V25.0532H19.3001ZM25.5487 21.9778V25.0541H22.4728V21.9778H25.5487ZM9.95702 28.2253V31.2996H13.0466V28.2253H9.95702ZM16.2086 31.3016V28.2234H19.2874V31.3016H16.2086ZM13.0456 34.4727H9.96972V37.5509H13.0456V34.4727ZM19.3011 34.4865V37.5588H16.2115V34.4865H19.3011ZM34.9299 28.2215H31.8413V34.971H37.5714V31.8634H34.9299V28.2215Z" fill="white"/>
</svg>
