<svg width="48" height="48" viewBox="0 0 48 48" fill="none" xmlns="http://www.w3.org/2000/svg">
<path fill-rule="evenodd" clip-rule="evenodd" d="M33.9928 44C32.1989 43.8302 30.4361 43.4193 28.7522 42.7785C24.8629 41.3438 21.418 39.1663 18.231 36.5601C13.7672 32.9101 10.0401 28.6305 7.21424 23.5925C5.82297 21.1129 4.75063 18.5034 4.2139 15.6962C4.16264 15.4285 4.12609 15.1582 4.08952 14.8877C4.06663 14.7185 4.04374 14.5492 4.01722 14.3804C3.93943 13.8807 4.13723 13.4532 4.36837 13.039C5.50183 11.0002 6.92421 9.16579 8.49882 7.46461C9.44311 6.46886 10.4426 5.52685 11.4925 4.64301C12.9126 3.42153 14.345 4.13887 15.0862 5.14936C16.9753 7.72334 18.7211 10.395 20.0679 13.3033C20.1632 13.5089 20.2384 13.7231 20.3137 13.9372C20.3534 14.0502 20.3931 14.1632 20.4357 14.2749C20.8313 15.3165 20.5913 16.227 19.8056 16.9732C19.033 17.7071 18.2431 18.3808 17.4446 19.062L17.4043 19.0964C17.1887 19.2796 17.1453 19.4295 17.2454 19.6971C19.2567 25.0338 22.9278 28.7145 28.2588 30.7392C28.5733 30.8603 28.7489 30.7914 28.9589 30.5405C29.5997 29.7743 30.2583 29.0225 30.9347 28.2852C31.7547 27.388 32.7649 27.1037 33.8761 27.6278C35.3774 28.3374 36.8764 29.0714 38.311 29.902C39.3651 30.516 40.3792 31.2 41.393 31.8839L41.3932 31.884C41.7838 32.1475 42.1743 32.4109 42.5671 32.6703C43.193 33.071 43.6601 33.6767 43.8883 34.3837C44.0628 34.9167 44.045 35.4264 43.7483 35.9027C43.5059 36.323 43.2294 36.7226 42.9215 37.0976C40.6344 39.6982 37.9361 41.9065 34.934 43.6347C34.688 43.7736 34.4124 43.862 34.2013 43.9297C34.1206 43.9556 34.0493 43.9785 33.9928 44ZM41.0874 34.8905L41.0872 34.8904C40.9933 34.8163 40.9093 34.7499 40.8224 34.6868C38.5084 33.007 36.0444 31.5439 33.4616 30.3162C32.8907 30.0457 32.8892 30.0473 32.4716 30.5181L32.4537 30.5382C31.6314 31.4577 30.8069 32.3771 29.9701 33.2832C29.6178 33.6652 29.1589 33.7396 28.6655 33.623C28.4366 33.5686 28.2077 33.512 27.9832 33.4376C24.1206 32.2161 20.9158 29.9952 18.3355 26.8949C16.4897 24.6741 15.0973 22.1967 14.3817 19.3729C14.2517 18.8632 14.3339 18.4112 14.7095 18.027C14.7748 17.9598 14.8381 17.8902 14.9014 17.8206L14.9015 17.8206C15.016 17.6946 15.1307 17.5685 15.2574 17.4563C16.0552 16.7467 16.8586 16.0405 17.6698 15.3464C17.881 15.1654 17.9154 15.0233 17.7876 14.7535C16.5251 12.0959 15.0216 9.55942 13.296 7.1759C13.2284 7.08275 13.1549 6.99395 13.078 6.90114L13.0779 6.90101C13.0449 6.86109 13.0112 6.82043 12.9771 6.77836C12.914 6.81953 12.8532 6.86401 12.7949 6.91161C10.5004 8.99618 8.49039 11.3733 6.81642 13.9817C6.72973 14.133 6.69536 14.3086 6.71863 14.4814C7.04422 16.8589 7.85431 19.0853 8.9611 21.1929C12.7293 28.364 18.171 33.9628 25.1084 38.1081C27.7065 39.6627 30.4746 40.8264 33.5016 41.2661C33.7011 41.2908 33.9031 41.2466 34.0739 41.1406L34.1523 41.0868C35.0298 40.4851 35.9092 39.882 36.7509 39.2329C38.3792 37.9715 39.8863 36.5611 41.2525 35.0199C41.1931 34.974 41.1388 34.9311 41.0874 34.8905ZM25.7885 5.33143C33.6327 5.47468 40.5446 11.1456 42.2348 18.8865C42.474 19.9769 42.5569 21.1069 42.639 22.2261C42.642 22.2667 42.6449 22.3074 42.6479 22.348C42.651 22.3893 42.654 22.4307 42.6571 22.472C42.7249 23.3526 42.1492 23.9722 41.3669 23.9889C40.5846 24.0055 40.0201 23.4059 40.0023 22.5298C39.8712 16.2003 36.0252 10.8769 30.0557 8.78043C28.5431 8.26462 26.9567 7.99761 25.3585 7.9898C24.3173 7.97426 23.6916 6.95044 24.1495 6.05543C24.2505 5.84819 24.4054 5.67188 24.5979 5.54491C24.7905 5.41794 25.0136 5.34498 25.244 5.33365C25.3724 5.32297 25.4986 5.32593 25.6221 5.32882L25.6221 5.32882C25.6782 5.33013 25.7337 5.33143 25.7885 5.33143ZM35.9374 21.4982C35.4318 16.2936 30.8891 12.0951 25.6663 11.9841C25.4588 11.9835 25.2515 11.9988 25.0462 12.0296C24.7348 12.1078 24.4621 12.2957 24.2782 12.5588C24.0943 12.8219 24.0115 13.1424 24.0452 13.4615C24.0788 13.7807 24.2266 14.0769 24.4613 14.2959C24.6961 14.5149 25.002 14.6419 25.3229 14.6535C26.3234 14.6608 27.3143 14.8489 28.2477 15.2087C31.3014 16.4091 33.2494 19.2341 33.3416 22.5931C33.3649 23.4071 33.9294 23.9934 34.6851 23.9889C35.4407 23.9845 36.013 23.3815 36.0052 22.5765C36.0019 22.2167 35.9719 21.8558 35.9374 21.4982Z" fill="white"/>
</svg>
