<svg width="16" height="16" viewBox="0 0 16 16" fill="none" xmlns="http://www.w3.org/2000/svg">
<g clip-path="url(#clip0_2004_6736)">
<path d="M12.469 9.79787C12.3728 9.68687 12.2538 9.59785 12.1202 9.53685C11.9866 9.47584 11.8414 9.44426 11.6945 9.44426C11.5476 9.44426 11.4024 9.47584 11.2688 9.53685C11.1352 9.59785 11.0162 9.68687 10.92 9.79787C10.558 10.1569 10.196 10.5159 9.83899 10.8819C9.82315 10.9055 9.80274 10.9256 9.77897 10.9412C9.7552 10.9568 9.72855 10.9675 9.70059 10.9726C9.67263 10.9777 9.64393 10.9772 9.61618 10.9711C9.58843 10.9649 9.56218 10.9533 9.53899 10.9369C9.305 10.8089 9.055 10.7059 8.83 10.5659C7.7989 9.89741 6.88442 9.06435 6.123 8.09986C5.72659 7.63067 5.39958 7.10699 5.152 6.54486C5.12536 6.49852 5.11626 6.44414 5.12636 6.39165C5.13645 6.33915 5.16507 6.29203 5.207 6.25887C5.569 5.90887 5.922 5.54986 6.278 5.19086C6.39475 5.09432 6.48875 4.97318 6.55328 4.83609C6.6178 4.69901 6.65126 4.54937 6.65126 4.39787C6.65126 4.24636 6.6178 4.09672 6.55328 3.95964C6.48875 3.82256 6.39475 3.70142 6.278 3.60487C5.995 3.31887 5.712 3.03886 5.429 2.75286C5.146 2.46686 4.848 2.16587 4.552 1.87587C4.45524 1.76574 4.3361 1.67752 4.20255 1.61708C4.069 1.55665 3.92409 1.52539 3.7775 1.52539C3.6309 1.52539 3.486 1.55665 3.35244 1.61708C3.21889 1.67752 3.09976 1.76574 3.003 1.87587C2.638 2.23487 2.288 2.60287 1.916 2.95687C1.58512 3.2675 1.38671 3.6937 1.362 4.14687C1.33032 4.89011 1.4635 5.63116 1.752 6.31687C2.30054 7.74265 3.09265 9.06228 4.093 10.2169C5.40881 11.794 7.045 13.0733 8.893 13.9699C9.71777 14.4033 10.6214 14.6662 11.55 14.7429C11.8591 14.7781 12.1721 14.7387 12.4628 14.628C12.7535 14.5174 13.0135 14.3387 13.221 14.1069C13.531 13.7599 13.881 13.4429 14.21 13.1069C14.3246 13.0101 14.4169 12.8896 14.4804 12.7537C14.5438 12.6178 14.577 12.4697 14.5776 12.3198C14.5781 12.1698 14.5461 12.0214 14.4837 11.885C14.4212 11.7487 14.3299 11.6275 14.216 11.5299C13.634 10.9525 13.0517 10.3752 12.469 9.79787Z" fill="#1976D2"/>
</g>
<defs>
<clipPath id="clip0_2004_6736">
<rect width="16" height="16" fill="white"/>
</clipPath>
</defs>
</svg>
