<svg width="80" height="80" viewBox="0 0 80 80" fill="none" xmlns="http://www.w3.org/2000/svg">
<rect width="38.0952" height="38.0952" rx="19.0476" fill="#E3F2FD"/>
<path d="M42.9335 24.651C46.7618 26.2561 52.2871 26.2562 56.1154 24.6511C59.2259 23.3469 62.7052 23.226 65.9155 24.5925C72.6915 27.4769 75.73 35.9072 72.7784 43.5107L72.7802 43.5115L70.8048 48.3834C70.3385 49.5334 69.2215 50.2858 67.9805 50.2858H31.0685C29.8275 50.2858 28.7105 49.5334 28.2442 48.3833L26.2688 43.5115L26.2706 43.5107C23.319 35.9072 26.3575 27.4769 33.1336 24.5925C36.3438 23.226 39.8231 23.3469 42.9335 24.651Z" fill="url(#paint0_linear_1534_18426)"/>
<path d="M42.9335 24.651C46.7618 26.2561 52.2871 26.2562 56.1154 24.6511C59.2259 23.3469 62.7052 23.226 65.9155 24.5925C72.6915 27.4769 75.73 35.9072 72.7784 43.5107L72.7802 43.5115L70.8048 48.3834C70.3385 49.5334 69.2215 50.2858 67.9805 50.2858H31.0685C29.8275 50.2858 28.7105 49.5334 28.2442 48.3833L26.2688 43.5115L26.2706 43.5107C23.319 35.9072 26.3575 27.4769 33.1336 24.5925C36.3438 23.226 39.8231 23.3469 42.9335 24.651Z" fill="url(#paint1_linear_1534_18426)" fill-opacity="0.1"/>
<path d="M42.9335 24.651C46.7618 26.2561 52.2871 26.2562 56.1154 24.6511C59.2259 23.3469 62.7052 23.226 65.9155 24.5925C72.6915 27.4769 75.73 35.9072 72.7784 43.5107L72.7802 43.5115L70.8048 48.3834C70.3385 49.5334 69.2215 50.2858 67.9805 50.2858H31.0685C29.8275 50.2858 28.7105 49.5334 28.2442 48.3833L26.2688 43.5115L26.2706 43.5107C23.319 35.9072 26.3575 27.4769 33.1336 24.5925C36.3438 23.226 39.8231 23.3469 42.9335 24.651Z" fill="url(#paint2_linear_1534_18426)" fill-opacity="0.05"/>
<path d="M35.8105 52.5723H63.2391L57.5089 69.6832C56.3594 73.1157 53.1447 75.4294 49.5248 75.4294C45.905 75.4294 42.6902 73.1158 41.5407 69.6833L35.8105 52.5723Z" fill="url(#paint3_linear_1534_18426)"/>
<path d="M28.1914 52.1899C28.1914 51.1379 29.0442 50.2852 30.0962 50.2852H68.9533C70.0053 50.2852 70.8581 51.1379 70.8581 52.1899C70.8581 53.2419 70.0053 54.0947 68.9533 54.0947H30.0962C29.0442 54.0947 28.1914 53.2419 28.1914 52.1899Z" fill="url(#paint4_linear_1534_18426)"/>
<path d="M39.6201 69.3344C39.6201 68.4928 40.3023 67.8105 41.1439 67.8105H57.9058C58.7474 67.8105 59.4296 68.4928 59.4296 69.3344C59.4296 70.1759 58.7474 70.8582 57.9058 70.8582H41.1439C40.3023 70.8582 39.6201 70.1759 39.6201 69.3344Z" fill="url(#paint5_linear_1534_18426)"/>
<path d="M37.7148 64.0004C37.7148 63.1588 38.3971 62.4766 39.2387 62.4766H59.8101C60.6517 62.4766 61.3339 63.1588 61.3339 64.0004C61.3339 64.842 60.6517 65.5242 59.8101 65.5242H39.2387C38.3971 65.5242 37.7148 64.842 37.7148 64.0004Z" fill="url(#paint6_linear_1534_18426)"/>
<path d="M35.8105 58.6664C35.8105 57.8248 36.4928 57.1426 37.3344 57.1426H61.7153C62.5569 57.1426 63.2391 57.8248 63.2391 58.6664C63.2391 59.508 62.5569 60.1902 61.7153 60.1902H37.3344C36.4928 60.1902 35.8105 59.508 35.8105 58.6664Z" fill="url(#paint7_linear_1534_18426)"/>
<defs>
<linearGradient id="paint0_linear_1534_18426" x1="31.5973" y1="23.6191" x2="60.0488" y2="74.6743" gradientUnits="userSpaceOnUse">
<stop stop-color="#F0F6F9"/>
<stop offset="1" stop-color="#CDDFF2"/>
</linearGradient>
<linearGradient id="paint1_linear_1534_18426" x1="49.1436" y1="51.4287" x2="49.1436" y2="49.143" gradientUnits="userSpaceOnUse">
<stop offset="0.241809" stop-color="#065099"/>
<stop offset="1" stop-color="#DFEBF6" stop-opacity="0.47"/>
</linearGradient>
<linearGradient id="paint2_linear_1534_18426" x1="49.5245" y1="50.2858" x2="49.5245" y2="47.2382" gradientUnits="userSpaceOnUse">
<stop stop-color="#065099"/>
<stop offset="1" stop-color="#065099" stop-opacity="0"/>
</linearGradient>
<linearGradient id="paint3_linear_1534_18426" x1="63.2391" y1="69.542" x2="32.0353" y2="59.218" gradientUnits="userSpaceOnUse">
<stop stop-color="#BCC1D6"/>
<stop offset="1" stop-color="#E9ECFA"/>
</linearGradient>
<linearGradient id="paint4_linear_1534_18426" x1="41.9315" y1="50.2852" x2="53.4982" y2="52.1942" gradientUnits="userSpaceOnUse">
<stop stop-color="#F0F3FF"/>
<stop offset="1" stop-color="#E1E5F5"/>
</linearGradient>
<linearGradient id="paint5_linear_1534_18426" x1="45.9995" y1="67.8105" x2="50.0459" y2="68.872" gradientUnits="userSpaceOnUse">
<stop stop-color="#F1F4FF"/>
<stop offset="1" stop-color="#D5DAF0"/>
</linearGradient>
<linearGradient id="paint6_linear_1534_18426" x1="46.941" y1="62.4766" x2="51.8407" y2="63.8824" gradientUnits="userSpaceOnUse">
<stop stop-color="#F1F4FF"/>
<stop offset="1" stop-color="#D5DAF0"/>
</linearGradient>
<linearGradient id="paint7_linear_1534_18426" x1="46.8582" y1="57.1426" x2="52.5809" y2="58.972" gradientUnits="userSpaceOnUse">
<stop stop-color="#F1F4FF"/>
<stop offset="1" stop-color="#D5DAF0"/>
</linearGradient>
</defs>
</svg>
