<svg width="104" height="105" viewBox="0 0 104 105" fill="none" xmlns="http://www.w3.org/2000/svg">
<path fill-rule="evenodd" clip-rule="evenodd" d="M81.0845 81.7844H77.9174V84.9431C77.9174 86.1791 76.8158 87.2777 75.5765 87.2777C74.3372 87.2777 73.2356 86.1791 73.2356 84.9431V81.7844H70.0685C68.8292 81.7844 67.7276 80.6858 67.7276 79.4498C67.7276 78.2138 68.8291 77.1151 70.0685 77.1151H73.2356V73.9565C73.2356 72.7205 74.3372 71.6218 75.5765 71.6218H75.7142C76.9535 71.6218 78.0551 72.7205 78.0551 73.9565V77.1151H81.2222C81.9107 77.1151 82.4615 77.3898 82.8746 77.8018C83.2877 78.2138 83.5631 78.7631 83.5631 79.4498C83.4254 80.8231 82.3238 81.7844 81.0845 81.7844ZM90.8613 74.7807C90.5859 72.7207 89.622 70.9354 88.1073 69.5621C87.1434 68.6007 86.0417 67.7767 84.9401 67.2274C81.2222 65.1674 77.0912 63.3821 72.8225 61.8715C72.5471 61.7341 72.2717 61.7341 71.9963 61.5968C71.7209 61.4595 71.3078 61.3221 71.0324 61.3221C70.0685 61.0475 68.9669 60.7728 68.003 60.4981C67.7276 60.9101 67.4522 61.4595 67.0391 61.8715C66.0752 63.2448 65.1113 64.4808 64.2851 65.8541C62.7704 67.9141 61.3934 69.8367 59.8787 71.7594C59.0525 72.858 58.2263 73.8194 57.4 74.918L57.2624 75.0553C57.2624 75.0553 57.2624 75.0553 57.2624 75.1927C57.1247 75.4673 56.9869 75.6047 56.7115 75.8793C56.7115 75.4673 56.5738 74.918 56.5738 74.506C56.023 70.5234 55.6099 67.2274 55.6099 66.6781V66.5408C55.7476 66.1288 55.8853 65.7168 56.1608 65.4421V65.3048L56.2985 65.1674C56.4362 65.0301 56.4362 64.7554 56.5739 64.6181L56.7116 64.4808V64.3434L56.8493 64.2061C56.987 63.9315 57.1247 63.5195 57.1247 63.1075C57.1247 62.6955 56.987 62.4208 56.8493 62.1461L56.7116 61.8715C56.7116 61.8715 56.7116 61.8715 56.7116 61.7342C56.7116 61.5968 56.5739 61.5968 56.5739 61.4595C56.4362 61.3222 56.4362 61.1848 56.2985 61.1848C56.1608 61.0475 55.8854 61.0475 55.7477 61.0475H55.4723C55.3346 61.0475 55.1968 61.0475 55.1968 61.0475C55.0592 61.0475 54.646 61.0475 54.2329 61.0475C53.9575 61.0475 53.6821 61.0475 53.269 61.0475C52.7182 61.0475 52.3051 61.0475 51.892 61.0475C51.7543 61.0475 51.6166 61.0475 51.6166 61.0475C51.4789 61.0475 51.4789 61.0475 51.4789 61.0475H51.3412C51.2035 61.0475 51.0658 61.0475 51.0658 61.0475H50.9281C50.9281 61.0475 50.9281 61.0475 50.7904 61.0475C50.7904 61.0475 50.6527 61.0475 50.515 61.0475H50.2396C50.1019 61.0475 49.9642 61.0475 49.6888 61.1848C49.5511 61.3222 49.4134 61.3222 49.4134 61.4595C49.2757 61.5968 49.2757 61.7342 49.2757 61.7342V61.8715L48.5872 61.7341C48.4495 62.0088 48.3118 62.2835 48.3118 62.6955C48.3118 63.1075 48.4495 63.5195 48.5872 63.7941L48.7249 63.9314C48.7249 63.9314 48.7249 63.9314 48.7249 64.0688L48.8626 64.2061C49.0003 64.3434 49.0003 64.6181 49.138 64.7554L49.2757 64.8928V65.0301C49.4134 65.4421 49.5511 65.7168 49.8265 66.1287V66.2661C49.8265 66.6781 49.4134 70.1114 48.8626 74.094C48.8626 74.506 48.7249 75.0553 48.7249 75.4673C48.5872 75.1926 48.4495 75.0553 48.1741 74.7807C47.2102 73.682 46.384 72.5833 45.4201 71.3473C43.9054 69.4247 42.3907 67.5021 41.0137 65.4421C39.7744 63.6568 38.5351 62.0088 37.2958 60.0861C35.9188 60.3608 34.6795 60.7728 33.3025 61.1848C28.7584 62.6954 24.3519 64.6181 20.3586 66.8154C19.1193 67.5021 18.1554 68.1887 17.1915 69.15C15.8145 70.6607 14.7129 72.3087 14.4375 74.3686C14.4375 74.7806 14.2998 75.0553 14.2998 75.4673V87.5525C15.2637 95.2431 20.0832 95.2431 20.3586 95.2431H85.2156C85.2156 95.2431 85.2156 95.2431 85.3533 95.2431H85.491C86.0418 95.1058 87.0057 94.9685 88.1073 94.1445C88.245 94.0071 88.3827 93.8698 88.5204 93.8698L88.6581 93.7325C89.0712 93.3205 89.4843 92.7712 89.7597 92.2218C89.8974 92.0845 89.8974 91.9472 89.8974 91.8098C89.8974 91.6725 90.0351 91.5352 90.0351 91.3978C90.4482 90.4365 90.7236 89.3379 90.8613 87.9645V75.8793C90.8613 75.4673 90.8613 75.0553 90.8613 74.7807L90.8613 74.7807Z" fill="#1976D2"/>
<path fill-rule="evenodd" clip-rule="evenodd" d="M69.2362 30.1435V25.7576H67.0374C67.1748 26.4429 67.3122 27.1282 67.3122 27.9505C67.3122 28.7729 67.1748 29.4582 67.0374 30.1435H69.2362Z" fill="#1976D2"/>
<path fill-rule="evenodd" clip-rule="evenodd" d="M36.7465 25.7576V30.1435H51.2001C51.0625 29.4582 50.9248 28.7729 50.9248 27.9505C50.9248 27.1282 51.0625 26.4429 51.2001 25.7576H36.7465Z" fill="#1976D2"/>
<path fill-rule="evenodd" clip-rule="evenodd" d="M59.0527 29.8739C58.0888 29.8739 57.1249 29.0499 57.1249 27.9512C57.1249 26.9899 57.9511 26.0286 59.0527 26.0286C60.1543 26.0286 60.9805 26.8526 60.9805 27.9512C60.9805 28.9125 60.1543 29.8739 59.0527 29.8739ZM59.052 21.6348C56.298 21.6348 53.9571 23.4201 52.9932 25.7547C52.7178 26.4414 52.5801 27.128 52.5801 27.952C52.5801 28.776 52.7178 29.4627 52.9932 30.1494C53.9571 32.6213 56.298 34.2693 59.052 34.2693C61.806 34.2693 64.1469 32.484 65.1108 30.1494C65.3862 29.4627 65.5239 28.776 65.5239 27.952C65.5239 27.128 65.3862 26.4414 65.1108 25.7547C64.1469 23.2827 61.806 21.6348 59.052 21.6348Z" fill="#1976D2"/>
<path fill-rule="evenodd" clip-rule="evenodd" d="M34.8195 34.6822C34.8195 35.2316 34.9571 35.781 34.9571 36.3304C34.9571 36.6051 35.0948 36.8798 35.0948 37.1545C35.3702 39.6268 36.6094 41.4123 38.3993 42.3738C38.537 42.3738 38.537 42.5111 38.537 42.5111C40.1893 48.8292 45.2837 53.6364 51.2043 54.5979C51.8928 54.7352 52.5812 54.7352 53.2697 54.7352C57.8134 54.7352 61.944 52.2629 64.6978 47.8678C65.2486 47.0437 65.6616 46.0822 66.2124 44.9834C66.35 44.5714 66.4877 44.1593 66.6254 43.7473C66.7631 43.1979 66.9008 42.9232 67.0385 42.6485C67.3139 42.3738 67.5892 42.0991 68.0023 41.8244L68.5531 41.4123C69.9299 40.0389 70.343 38.528 70.4807 37.1545C70.4807 36.8798 70.6184 36.6051 70.6184 36.3304C70.7561 35.781 70.7561 35.2316 70.7561 34.6822C70.7561 34.2702 70.7561 33.8581 70.7561 33.4461V33.3087C70.7561 32.7593 70.6184 32.0726 70.4807 31.5232H66.6254C66.4877 31.6605 66.4877 31.7979 66.35 31.9352C66.9008 32.2099 67.4515 32.3473 67.7269 32.3473C67.8646 32.4846 68.0023 32.7593 68.0023 33.034V33.1714V33.4461C68.0023 33.7208 68.0023 34.1328 68.0023 34.4075C68.0023 34.8196 67.8646 35.369 67.8646 35.781C67.8646 36.0557 67.7269 36.3304 67.7269 36.7425C67.5892 37.9786 67.3139 38.6654 66.7631 39.0774C66.6254 39.2148 66.4877 39.3521 66.2124 39.4895L66.0747 39.6268C65.937 39.7642 65.937 39.9015 65.937 40.0389C65.6616 40.5883 65.1109 41.687 65.1109 41.687C64.2847 43.7473 63.3209 45.8075 61.8063 47.4557C59.3279 50.6148 55.8857 52.1256 52.1682 51.5762C50.5159 51.3015 49.0013 50.7521 47.6245 49.7907C45.1461 48.5545 43.0807 45.8075 41.9792 43.3352C41.8416 43.0605 41.0154 40.7256 40.6024 39.9015L40.4647 39.7641C40.4647 39.7641 40.327 39.7641 40.327 39.6268C39.0878 38.9401 38.6747 37.4292 38.6747 36.6051C38.6747 36.3304 38.537 36.0557 38.537 35.6437C38.3993 35.2316 38.3993 34.6822 38.3993 34.2702C38.3993 33.9955 38.3993 33.5834 38.3993 33.3087V33.034C38.3993 32.7593 38.537 32.3473 38.537 32.3473C38.6747 32.3473 38.8124 32.3473 38.8124 32.3473C38.9501 32.3473 39.0878 32.3473 39.2255 32.3473C39.3632 32.3473 39.5008 32.3473 39.6385 32.3473L40.0516 32.2099C40.327 32.0726 40.4646 31.9352 40.6023 31.6605C40.6023 31.6605 40.6023 31.5232 40.74 31.5232H35.7833C35.5079 32.0726 35.5079 32.622 35.5079 33.3087V33.4461C34.8194 33.8581 34.8194 34.2702 34.8194 34.6822H34.8195Z" fill="#1976D2"/>
<path fill-rule="evenodd" clip-rule="evenodd" d="M51.8918 24.2416C53.2686 21.6326 56.0223 19.7101 59.189 19.7101C62.3558 19.7101 65.1094 21.4952 66.4863 24.2416H69.24C69.24 23.8297 69.3776 23.4177 69.3776 23.0058C69.5153 18.0622 67.037 14.0799 62.6311 12.1575C62.0804 11.8828 61.6673 11.7455 61.2543 11.6082C58.3629 10.5096 55.6092 10.0976 52.7179 10.0976C52.1672 10.0976 51.4787 10.0976 50.928 10.0976C49.1381 10.235 46.7975 10.3723 44.7322 11.3335C44.4569 11.4708 44.3192 11.6082 44.0438 11.6082C43.2177 12.1575 42.5293 12.7067 42.1162 13.668H41.9785C41.1524 14.2173 40.464 14.9039 39.9133 15.5905C39.0872 16.0024 38.3988 16.5517 37.848 17.3756C37.1596 18.4742 36.8842 19.9847 36.7466 21.6325C36.7466 22.5938 36.7466 23.4177 36.7466 24.2416H51.8918L51.8918 24.2416Z" fill="#1976D2"/>
</svg>
