<svg width="16" height="16" viewBox="0 0 16 16" fill="none" xmlns="http://www.w3.org/2000/svg">
<g clip-path="url(#clip0_2004_6743)">
<path d="M2.16287 3.18555H13.8399C14.1115 3.20185 14.3685 3.31369 14.5656 3.50127C14.7627 3.68885 14.8871 3.94008 14.9169 4.21055L7.99887 8.64755L1.08087 4.21055C1.11074 3.93928 1.23587 3.68741 1.43399 3.49972C1.63211 3.31204 1.89038 3.20071 2.16287 3.18555V3.18555ZM13.8399 13.5465H2.16287C1.85045 13.5235 1.55973 13.3781 1.35379 13.142C1.14786 12.906 1.04332 12.5982 1.06287 12.2855V5.25655L7.81987 9.59255C7.87334 9.62698 7.93528 9.64601 7.99887 9.64755C8.06277 9.64804 8.12527 9.62883 8.17787 9.59255L14.9349 5.25655V12.2855C14.955 12.5975 14.8513 12.9049 14.6463 13.1409C14.4414 13.377 14.1516 13.5227 13.8399 13.5465Z" fill="#1976D2"/>
</g>
<defs>
<clipPath id="clip0_2004_6743">
<rect width="16" height="16" fill="white"/>
</clipPath>
</defs>
</svg>
