<svg width="64" height="64" viewBox="0 0 64 64" fill="none" xmlns="http://www.w3.org/2000/svg">
<circle cx="32" cy="32" r="30.5" fill="#1565C0" stroke="white" stroke-width="3"/>
<path fill-rule="evenodd" clip-rule="evenodd" d="M26.667 18.6489H23.3318V21.3122H22.6667C21.1939 21.3122 20 22.5061 20 23.9789V41.3122C20 42.785 21.1939 43.9789 22.6667 43.9789H41.3333C42.8061 43.9789 44 42.785 44 41.3122V23.9789C44 22.5061 42.8061 21.3122 41.3333 21.3122H40.6675V18.6489H37.3323V21.3122H26.667V18.6489ZM22.3374 28.3425C22.3374 27.9743 22.6359 27.6758 23.0041 27.6758H40.984C41.3522 27.6758 41.6506 27.9743 41.6506 28.3425V40.9855C41.6506 41.3537 41.3522 41.6522 40.984 41.6522H23.0041C22.6359 41.6522 22.3374 41.3537 22.3374 40.9855V28.3425ZM31 39.3543H33V35.6876H36.6667V33.6876H33V30.021H31V33.6876H27.3333V35.6876H31V39.3543Z" fill="white"/>
</svg>
