<svg width="44" height="44" viewBox="0 0 44 44" fill="none" xmlns="http://www.w3.org/2000/svg">
<path d="M17.2425 4.04568C20.0061 5.20437 23.9946 5.20438 26.7582 4.04569C29.0036 3.10426 31.5152 3.01695 33.8326 4.00344C38.7241 6.08562 40.9175 12.1712 38.7868 17.66L38.7881 17.6605L37.3621 21.1774C37.0255 22.0076 36.2192 22.5508 35.3233 22.5508H8.67743C7.78162 22.5508 6.97526 22.0076 6.63865 21.1774L5.21266 17.6605L5.21397 17.66C3.08332 12.1712 5.27671 6.08562 10.1682 4.00344C12.4856 3.01696 14.9972 3.10426 17.2425 4.04568Z" fill="url(#paint0_linear_1539_9458)"/>
<path d="M17.2425 4.04568C20.0061 5.20437 23.9946 5.20438 26.7582 4.04569C29.0036 3.10426 31.5152 3.01695 33.8326 4.00344C38.7241 6.08562 40.9175 12.1712 38.7868 17.66L38.7881 17.6605L37.3621 21.1774C37.0255 22.0076 36.2192 22.5508 35.3233 22.5508H8.67743C7.78162 22.5508 6.97526 22.0076 6.63865 21.1774L5.21266 17.6605L5.21397 17.66C3.08332 12.1712 5.27671 6.08562 10.1682 4.00344C12.4856 3.01696 14.9972 3.10426 17.2425 4.04568Z" fill="url(#paint1_linear_1539_9458)" fill-opacity="0.1"/>
<path d="M17.2425 4.04568C20.0061 5.20437 23.9946 5.20438 26.7582 4.04569C29.0036 3.10426 31.5152 3.01695 33.8326 4.00344C38.7241 6.08562 40.9175 12.1712 38.7868 17.66L38.7881 17.6605L37.3621 21.1774C37.0255 22.0076 36.2192 22.5508 35.3233 22.5508H8.67743C7.78162 22.5508 6.97526 22.0076 6.63865 21.1774L5.21266 17.6605L5.21397 17.66C3.08332 12.1712 5.27671 6.08562 10.1682 4.00344C12.4856 3.01696 14.9972 3.10426 17.2425 4.04568Z" fill="url(#paint2_linear_1539_9458)" fill-opacity="0.05"/>
<path d="M12.1006 24.2012H31.9006L27.7641 36.5532C26.9343 39.031 24.6137 40.7012 22.0006 40.7012C19.3875 40.7012 17.0669 39.031 16.2371 36.5532L12.1006 24.2012Z" fill="url(#paint3_linear_1539_9458)"/>
<path d="M6.60059 23.9258C6.60059 23.1664 7.21619 22.5508 7.97559 22.5508H36.0256C36.785 22.5508 37.4006 23.1664 37.4006 23.9258C37.4006 24.6852 36.785 25.3008 36.0256 25.3008H7.97559C7.21619 25.3008 6.60059 24.6852 6.60059 23.9258Z" fill="url(#paint4_linear_1539_9458)"/>
<path d="M14.8506 36.3012C14.8506 35.6937 15.3431 35.2012 15.9506 35.2012H28.0506C28.6581 35.2012 29.1506 35.6937 29.1506 36.3012C29.1506 36.9087 28.6581 37.4012 28.0506 37.4012H15.9506C15.3431 37.4012 14.8506 36.9087 14.8506 36.3012Z" fill="url(#paint5_linear_1539_9458)"/>
<path d="M13.4756 32.4516C13.4756 31.844 13.9681 31.3516 14.5756 31.3516H29.4256C30.0331 31.3516 30.5256 31.844 30.5256 32.4516C30.5256 33.0591 30.0331 33.5516 29.4256 33.5516H14.5756C13.9681 33.5516 13.4756 33.0591 13.4756 32.4516Z" fill="url(#paint6_linear_1539_9458)"/>
<path d="M12.1006 28.6C12.1006 27.9925 12.5931 27.5 13.2006 27.5H30.8006C31.4081 27.5 31.9006 27.9925 31.9006 28.6C31.9006 29.2075 31.4081 29.7 30.8006 29.7H13.2006C12.5931 29.7 12.1006 29.2075 12.1006 28.6Z" fill="url(#paint7_linear_1539_9458)"/>
<defs>
<linearGradient id="paint0_linear_1539_9458" x1="9.05921" y1="3.30078" x2="29.5976" y2="40.1563" gradientUnits="userSpaceOnUse">
<stop stop-color="#F0F6F9"/>
<stop offset="1" stop-color="#CDDFF2"/>
</linearGradient>
<linearGradient id="paint1_linear_1539_9458" x1="21.7254" y1="23.3758" x2="21.7254" y2="21.7258" gradientUnits="userSpaceOnUse">
<stop offset="0.241809" stop-color="#065099"/>
<stop offset="1" stop-color="#DFEBF6" stop-opacity="0.47"/>
</linearGradient>
<linearGradient id="paint2_linear_1539_9458" x1="22.0004" y1="22.5508" x2="22.0004" y2="20.3508" gradientUnits="userSpaceOnUse">
<stop stop-color="#065099"/>
<stop offset="1" stop-color="#065099" stop-opacity="0"/>
</linearGradient>
<linearGradient id="paint3_linear_1539_9458" x1="31.9006" y1="36.4512" x2="9.37531" y2="28.9986" gradientUnits="userSpaceOnUse">
<stop stop-color="#BCC1D6"/>
<stop offset="1" stop-color="#E9ECFA"/>
</linearGradient>
<linearGradient id="paint4_linear_1539_9458" x1="16.5192" y1="22.5508" x2="24.8689" y2="23.9289" gradientUnits="userSpaceOnUse">
<stop stop-color="#F0F3FF"/>
<stop offset="1" stop-color="#E1E5F5"/>
</linearGradient>
<linearGradient id="paint5_linear_1539_9458" x1="19.4557" y1="35.2012" x2="22.3767" y2="35.9674" gradientUnits="userSpaceOnUse">
<stop stop-color="#F1F4FF"/>
<stop offset="1" stop-color="#D5DAF0"/>
</linearGradient>
<linearGradient id="paint6_linear_1539_9458" x1="20.1357" y1="31.3516" x2="23.6727" y2="32.3664" gradientUnits="userSpaceOnUse">
<stop stop-color="#F1F4FF"/>
<stop offset="1" stop-color="#D5DAF0"/>
</linearGradient>
<linearGradient id="paint7_linear_1539_9458" x1="20.0756" y1="27.5" x2="24.2067" y2="28.8206" gradientUnits="userSpaceOnUse">
<stop stop-color="#F1F4FF"/>
<stop offset="1" stop-color="#D5DAF0"/>
</linearGradient>
</defs>
</svg>
