<svg width="80" height="80" viewBox="0 0 80 80" fill="none" xmlns="http://www.w3.org/2000/svg">
<rect width="38.0952" height="38.0952" rx="19.0476" fill="#E3F2FD"/>
<path fill-rule="evenodd" clip-rule="evenodd" d="M55.8573 23.9011C52.0609 25.5276 46.5817 25.5276 42.7853 23.9011C39.7007 22.5796 36.2505 22.4571 33.067 23.8418C26.3487 26.7641 23.3354 35.304 26.2595 43.0077C26.2601 43.0094 26.2601 43.0113 26.2594 43.013L27.1719 44.9972C30.2564 51.7043 32.5815 58.7353 34.1036 65.9591L35.5516 72.8308C36.0527 74.8063 37.8235 76.1888 39.8526 76.1888C42.0319 76.1888 43.8888 74.5993 44.2348 72.4376L46.2762 59.6831C46.5166 58.1809 47.807 57.0763 49.3214 57.0763C50.8358 57.0763 52.1261 58.1809 52.3666 59.6831L54.4079 72.4376C54.7538 74.5992 56.6107 76.1888 58.79 76.1888C60.8192 76.1888 62.5899 74.8063 63.091 72.8308L64.539 65.9591C66.0612 58.7353 68.3862 51.7043 71.4708 44.9972L72.3833 43.013C72.3826 43.0113 72.3825 43.0094 72.3832 43.0077C75.3072 35.304 72.294 26.7641 65.5757 23.8418C62.3921 22.457 58.9419 22.5796 55.8573 23.9011Z" fill="url(#paint0_linear_1534_18433)"/>
<g filter="url(#filter0_f_1534_18433)">
<path d="M34.3098 28.4683L34.1153 27.5403C34.0086 27.0309 33.5593 26.666 33.0388 26.666C32.5037 26.666 32.0462 27.0511 31.9549 27.5784L31.8427 28.2271C31.3779 30.9135 29.3062 33.0359 26.6319 33.5655L25.2115 33.8469C24.7287 33.9425 24.3809 34.366 24.3809 34.8581C24.3809 35.3657 24.7503 35.7978 25.2517 35.8766L26.3522 36.0495C29.1693 36.4922 31.3855 38.6905 31.8511 41.5038L31.9617 42.1722C32.0489 42.6988 32.5043 43.0851 33.0381 43.0851C33.558 43.0851 34.0056 42.7182 34.1078 42.2085L34.3496 41.0025C34.8574 38.4692 36.8832 36.5166 39.4334 36.1022L40.7934 35.8812C41.2953 35.7996 41.6641 35.3661 41.6641 34.8576C41.6641 34.365 41.3176 33.9404 40.8351 33.8416L39.4159 33.551C36.8529 33.0261 34.8465 31.0289 34.3098 28.4683Z" fill="url(#paint1_linear_1534_18433)"/>
</g>
<path d="M33.9191 30.3203L33.5082 27.0878C33.4775 26.8467 33.2724 26.666 33.0293 26.666C32.7804 26.666 32.5724 26.8552 32.5488 27.103L32.2433 30.3131C32.0636 32.202 30.5901 33.7095 28.7057 33.9322L24.8022 34.3937C24.5619 34.4221 24.3809 34.6258 24.3809 34.8678C24.3809 35.1163 24.5715 35.3233 24.8193 35.3436L28.501 35.6454C30.4865 35.8082 32.0678 37.3745 32.2493 39.3584L32.5504 42.6482C32.573 42.8957 32.7806 43.0851 33.0291 43.0851C33.272 43.0851 33.4767 42.9038 33.5062 42.6627L33.9108 39.3532C34.1548 37.3571 35.7654 35.8057 37.7693 35.6365L41.2255 35.3447C41.4735 35.3237 41.6641 35.1164 41.6641 34.8675C41.6641 34.6255 41.4834 34.4215 41.2431 34.3922L37.562 33.944C35.6613 33.7126 34.1605 32.2198 33.9191 30.3203Z" fill="url(#paint2_linear_1534_18433)"/>
<g filter="url(#filter1_f_1534_18433)">
<path d="M64.2284 51.4184L64.1061 50.8349C64.039 50.5146 63.7565 50.2852 63.4292 50.2852C63.0927 50.2852 62.8051 50.5273 62.7477 50.8589L62.6772 51.2667C62.3849 52.9558 61.0823 54.2903 59.4008 54.6234L58.5076 54.8003C58.2041 54.8604 57.9854 55.1267 57.9854 55.4361C57.9854 55.7553 58.2177 56.0269 58.5329 56.0765L59.2249 56.1852C60.9962 56.4636 62.3897 57.8458 62.6824 59.6147L62.752 60.035C62.8068 60.3661 63.0932 60.609 63.4288 60.609C63.7557 60.609 64.0371 60.3783 64.1014 60.0578L64.2534 59.2995C64.5727 57.7067 65.8465 56.4789 67.45 56.2183L68.3051 56.0794C68.6207 56.0281 68.8525 55.7555 68.8525 55.4358C68.8525 55.1261 68.6347 54.8591 68.3313 54.797L67.439 54.6142C65.8274 54.2842 64.5659 53.0284 64.2284 51.4184Z" fill="url(#paint3_linear_1534_18433)"/>
</g>
<path d="M63.9827 52.5829L63.7243 50.5504C63.7051 50.3988 63.5761 50.2852 63.4233 50.2852C63.2668 50.2852 63.136 50.4041 63.1211 50.5599L62.9291 52.5783C62.8161 53.766 61.8896 54.7139 60.7047 54.8539L58.2503 55.1441C58.0992 55.1619 57.9854 55.29 57.9854 55.4422C57.9854 55.5984 58.1053 55.7286 58.261 55.7413L60.576 55.9311C61.8244 56.0335 62.8187 57.0183 62.9328 58.2657L63.1221 60.3343C63.1364 60.4899 63.2669 60.609 63.4231 60.609C63.5758 60.609 63.7046 60.495 63.7231 60.3434L63.9775 58.2625C64.131 57.0074 65.1436 56.0319 66.4036 55.9255L68.5768 55.742C68.7327 55.7289 68.8525 55.5985 68.8525 55.442C68.8525 55.2898 68.7389 55.1616 68.5879 55.1432L66.2733 54.8614C65.0782 54.7158 64.1345 53.7772 63.9827 52.5829Z" fill="url(#paint4_linear_1534_18433)"/>
<defs>
<filter id="filter0_f_1534_18433" x="20.3809" y="22.666" width="25.2832" height="24.4199" filterUnits="userSpaceOnUse" color-interpolation-filters="sRGB">
<feFlood flood-opacity="0" result="BackgroundImageFix"/>
<feBlend mode="normal" in="SourceGraphic" in2="BackgroundImageFix" result="shape"/>
<feGaussianBlur stdDeviation="2" result="effect1_foregroundBlur_1534_18433"/>
</filter>
<filter id="filter1_f_1534_18433" x="53.9854" y="46.2852" width="18.8672" height="18.3242" filterUnits="userSpaceOnUse" color-interpolation-filters="sRGB">
<feFlood flood-opacity="0" result="BackgroundImageFix"/>
<feBlend mode="normal" in="SourceGraphic" in2="BackgroundImageFix" result="shape"/>
<feGaussianBlur stdDeviation="2" result="effect1_foregroundBlur_1534_18433"/>
</filter>
<linearGradient id="paint0_linear_1534_18433" x1="31.5436" y1="22.8555" x2="60.6991" y2="74.0555" gradientUnits="userSpaceOnUse">
<stop stop-color="#F0F6F9"/>
<stop offset="1" stop-color="#CDDFF2"/>
</linearGradient>
<linearGradient id="paint1_linear_1534_18433" x1="33.0225" y1="26.666" x2="33.0225" y2="43.0851" gradientUnits="userSpaceOnUse">
<stop stop-color="white"/>
<stop offset="1" stop-color="white"/>
</linearGradient>
<linearGradient id="paint2_linear_1534_18433" x1="33.0225" y1="26.666" x2="33.0225" y2="43.0851" gradientUnits="userSpaceOnUse">
<stop stop-color="white"/>
<stop offset="1" stop-color="white"/>
</linearGradient>
<linearGradient id="paint3_linear_1534_18433" x1="63.419" y1="50.2852" x2="63.419" y2="60.609" gradientUnits="userSpaceOnUse">
<stop stop-color="white"/>
<stop offset="1" stop-color="white"/>
</linearGradient>
<linearGradient id="paint4_linear_1534_18433" x1="63.419" y1="50.2852" x2="63.419" y2="60.609" gradientUnits="userSpaceOnUse">
<stop stop-color="white"/>
<stop offset="1" stop-color="white"/>
</linearGradient>
</defs>
</svg>
