<svg width="16" height="16" viewBox="0 0 16 16" fill="none" xmlns="http://www.w3.org/2000/svg">
<g clip-path="url(#clip0_2004_6729)">
<path d="M13.7321 13.649L12.4113 11.8458C12.3146 11.725 12.1932 11.6263 12.0552 11.5562C11.9172 11.4861 11.7659 11.4463 11.6113 11.4395H4.66247C4.50787 11.4463 4.35652 11.4861 4.21855 11.5562C4.08058 11.6263 3.95918 11.725 3.86247 11.8458L2.54167 13.649C2.4798 13.7168 2.44009 13.8018 2.42785 13.8927C2.41562 13.9836 2.43143 14.0761 2.47319 14.1578C2.51494 14.2395 2.58065 14.3065 2.66151 14.3498C2.74237 14.3931 2.83453 14.4107 2.92567 14.4003H13.3481C13.4392 14.4107 13.5314 14.3931 13.6122 14.3498C13.6931 14.3065 13.7588 14.2395 13.8005 14.1578C13.8423 14.0761 13.8581 13.9836 13.8459 13.8927C13.8336 13.8018 13.7939 13.7168 13.7321 13.649Z" fill="#1976D2"/>
<path d="M7.27991 9.6249C7.88311 10.1849 8.04071 10.1849 8.13591 10.1849C8.66391 10.1849 10.1191 8.4089 10.1359 8.3905C10.8559 7.5065 11.7071 6.2305 11.7071 5.1641C11.7071 4.2177 11.3312 3.31007 10.662 2.64086C9.99275 1.97166 9.08511 1.5957 8.13871 1.5957C7.19231 1.5957 6.28468 1.97166 5.61547 2.64086C4.94627 3.31007 4.57031 4.2177 4.57031 5.1641C4.57031 6.2273 5.42711 7.5057 6.14631 8.3905C6.49661 8.82646 6.8753 9.23882 7.27991 9.6249ZM6.51911 5.1449C6.51911 4.82276 6.61464 4.50784 6.79361 4.23999C6.97259 3.97214 7.22697 3.76337 7.5246 3.64009C7.82222 3.51681 8.14972 3.48455 8.46567 3.5474C8.78163 3.61025 9.07185 3.76538 9.29965 3.99317C9.52744 4.22096 9.68257 4.51118 9.74541 4.82714C9.80826 5.1431 9.776 5.47059 9.65272 5.76822C9.52944 6.06584 9.32068 6.32023 9.05282 6.4992C8.78497 6.67818 8.47006 6.7737 8.14791 6.7737C7.71571 6.77328 7.30133 6.60134 6.99579 6.29565C6.69025 5.98996 6.51852 5.57551 6.51831 5.1433L6.51911 5.1449Z" fill="#1976D2"/>
</g>
<defs>
<clipPath id="clip0_2004_6729">
<rect width="16" height="16" fill="white"/>
</clipPath>
</defs>
</svg>
