<svg width="63" height="63" viewBox="0 0 63 63" fill="none" xmlns="http://www.w3.org/2000/svg">
<rect width="63" height="63" rx="31.5" fill="#E3F2FD"/>
<path fill-rule="evenodd" clip-rule="evenodd" d="M41.0506 41.7383H39.5748V43.2101C39.5748 43.8234 39.0829 44.314 38.468 44.314C37.8531 44.314 37.3612 43.8234 37.3612 43.2101V41.7383H35.8854C35.2705 41.7383 34.7785 41.2477 34.7785 40.6344C34.7785 40.0211 35.2705 39.5305 35.8854 39.5305H37.2997V38.0587C37.2997 37.4454 37.7916 36.9548 38.4065 36.9548H38.468C39.0829 36.9548 39.5748 37.4454 39.5748 38.0587V39.5305H41.0506C41.3581 39.5305 41.6041 39.6532 41.7885 39.8372C41.973 40.0211 42.096 40.3278 42.096 40.6344C42.096 41.2477 41.6041 41.7383 41.0506 41.7383L41.0506 41.7383ZM51.0122 34.8084C50.8277 34.0724 50.1513 33.5205 49.352 33.5205H27.5226C27.0921 33.5205 26.6617 33.7045 26.3542 34.0111C26.0468 34.3178 25.8623 34.8084 25.8623 35.299C25.9238 36.1576 26.7232 36.7708 27.5841 36.7708H29.1828V46.5831C29.1828 47.1964 29.6748 47.7483 30.3512 47.7483H46.5234C47.1383 47.7483 47.6917 47.2577 47.6917 46.5831V36.7708H49.352C49.7824 36.7708 50.2128 36.5868 50.5203 36.2802C50.9507 35.9123 51.1352 35.3603 51.0122 34.8084H51.0122Z" fill="#1976D2"/>
<path fill-rule="evenodd" clip-rule="evenodd" d="M23.218 24.9974C23.218 26.5915 22.0502 27.7564 20.452 27.7564C18.8539 27.7564 17.686 26.5915 17.686 24.9974C17.686 23.4646 18.9153 22.177 20.452 22.177C21.9887 22.2383 23.2795 23.4646 23.218 24.9974Z" fill="#1976D2"/>
<path fill-rule="evenodd" clip-rule="evenodd" d="M21.4972 45.9685C22.1737 45.9685 22.8501 45.9071 23.5881 45.9071C24.203 45.8458 24.818 45.8458 25.3714 45.8458C26.0479 45.8458 26.6628 45.2939 26.6628 44.558C26.6628 43.8222 26.1094 43.2703 25.3714 43.2703C24.7565 43.2703 24.08 43.3316 23.4651 43.3316C22.0507 43.3929 20.5748 43.4542 19.4064 43.209C18.361 43.025 17.4385 42.4118 16.8236 41.4919C16.2701 40.6947 16.1471 39.7749 15.9626 38.6098C15.9626 38.4258 15.9011 38.2418 15.9011 38.1192L15.0402 32.5388C14.9172 31.8643 14.3023 31.3737 13.5643 31.4963C12.8879 31.619 12.3959 32.2322 12.5189 32.9681L13.3798 38.5484C13.3798 38.7324 13.4413 38.8551 13.4413 39.039C13.6258 40.3268 13.8103 41.7372 14.7327 43.025C15.7167 44.4354 17.1311 45.4166 18.7914 45.7232C19.6524 45.9071 20.5748 45.9685 21.4972 45.9685H21.4972Z" fill="#1976D2"/>
<path fill-rule="evenodd" clip-rule="evenodd" d="M23.1581 38.1829C23.1581 38.1829 25.6175 38.3055 27.2777 38.4282C27.4621 38.4282 27.5851 38.5509 27.5851 38.7349V42.1699C27.5851 42.3539 27.4621 42.4766 27.2777 42.4766C26.9088 42.4766 26.1709 42.4766 25.8635 42.4766C24.3878 42.4766 22.9121 42.4766 21.375 42.4766C19.0385 42.4766 17.8087 41.4338 17.8087 39.1029C17.7472 36.588 17.5628 34.1345 17.3783 31.6809C17.2553 30.1474 18.3006 28.8593 19.7763 28.6753H19.8378C20.3297 28.6139 20.7601 28.7366 21.1905 28.9206C21.9283 29.2887 22.4817 30.0247 22.6662 31.0062C22.7891 31.8036 22.8506 32.601 22.9121 33.4597C22.9121 33.7051 22.9736 33.8891 22.9736 34.1345L23.1581 38.1829Z" fill="#1976D2"/>
<path fill-rule="evenodd" clip-rule="evenodd" d="M41.4812 19.6608C41.4812 19.7835 41.4812 19.8448 41.4812 19.9061C41.4812 19.9675 41.4812 20.0901 41.4197 20.1514C41.4197 20.2128 41.4197 20.2741 41.4197 20.3354C41.4197 20.5807 41.3582 20.7034 41.2352 20.826C41.1737 20.826 41.1737 20.8874 41.1122 20.8874C41.1122 20.8874 41.1122 20.8874 41.0507 20.9487C41.0507 20.9487 41.0507 21.01 40.9892 21.01C40.9277 21.1327 40.8048 21.3166 40.8048 21.3166C40.6203 21.7459 40.4358 22.1139 40.1284 22.4818C39.6364 23.0951 38.96 23.4017 38.2221 23.2791C37.9147 23.2178 37.6072 23.0951 37.2998 22.9111C36.8078 22.6658 36.3774 22.1139 36.1929 21.6233C36.1929 21.562 36.0084 21.1327 35.947 20.9487H35.8855C35.8855 20.9487 35.8855 20.9487 35.824 20.9487C35.578 20.826 35.5165 20.5194 35.455 20.3354C35.455 20.2741 35.455 20.2128 35.455 20.1514C35.455 20.0901 35.455 19.9675 35.3935 19.9061C35.3935 19.8448 35.3935 19.7835 35.3935 19.7221V19.6608C35.3935 19.5995 35.3935 19.5382 35.455 19.5382H35.5165H35.578H35.6395H35.701C35.7625 19.5382 35.7625 19.4768 35.824 19.4155C35.8855 19.3542 35.8855 19.2929 35.8855 19.1702C35.8855 19.0476 35.8855 18.9249 35.824 18.8022C36.5004 18.8022 37.1153 18.8022 37.7917 18.6796C37.9762 18.6183 38.1606 18.6183 38.3451 18.5569C38.8985 18.4343 39.4519 18.189 39.9439 17.821C40.1898 18.1277 40.4973 18.373 40.8662 18.4956H40.9277C40.9277 18.6183 40.8662 18.7409 40.8662 18.8022V18.9249C40.8662 19.0476 40.8048 19.1702 40.8662 19.2929C40.8662 19.3542 40.9277 19.3542 40.9277 19.4155C41.0507 19.5382 41.1737 19.5382 41.2967 19.5382C41.4197 19.4768 41.4812 19.5382 41.4812 19.6608V19.6608ZM41.6039 18.9249C41.6039 18.8636 41.6039 18.9249 41.6039 18.9249V18.8023C41.6039 18.6796 41.6039 18.6183 41.6654 18.4956C41.7269 18.189 41.7884 17.8824 41.7884 17.6371C41.8499 16.6558 41.2964 15.8586 40.4356 15.4293C40.3126 15.368 40.2511 15.368 40.1281 15.3066C39.5747 15.1227 39.0213 15 38.4678 15C38.3449 15 38.2219 15 38.0989 15C37.7299 15 37.2995 15.0613 36.8691 15.2453C36.8076 15.2453 36.8076 15.3066 36.7461 15.3066C36.5616 15.4293 36.4386 15.5519 36.3156 15.7359C36.1312 15.8586 36.0082 15.9812 35.8852 16.1039C35.7007 16.1652 35.5777 16.2879 35.4548 16.4718C35.3318 16.7171 35.2703 16.9625 35.2703 17.3304C35.2703 17.6984 35.2703 18.005 35.2703 18.2503C35.2703 18.373 35.3318 18.4956 35.3318 18.6183C35.3318 18.6796 35.3933 18.8023 35.3933 18.8636C35.3933 18.8636 35.3933 18.8636 35.3318 18.8636C35.0243 18.9249 34.8398 19.2929 34.8398 19.5995C34.8398 19.6608 34.8398 19.7835 34.8398 19.8448C34.8398 19.9675 34.8398 20.0901 34.9013 20.1514C34.9013 20.2128 34.9013 20.2741 34.9013 20.3354C34.9628 20.826 35.2088 21.194 35.5777 21.378C35.5777 21.378 35.5777 21.378 35.5777 21.4393C35.8852 22.7272 36.9305 23.6471 38.0989 23.831C38.2219 23.831 38.3448 23.831 38.5293 23.831C39.4517 23.831 40.2511 23.3404 40.8045 22.4205C40.9275 22.2365 40.989 22.0526 41.1119 21.8686C41.1734 21.8073 41.1734 21.6846 41.1734 21.6233C41.1734 21.5006 41.2349 21.4393 41.2349 21.378C41.2964 21.3166 41.3579 21.2553 41.4194 21.194L41.5424 21.0713C41.8498 20.826 41.9113 20.4581 41.9113 20.2128C41.9113 20.1514 41.9113 20.0901 41.9113 20.0288C41.9113 19.9061 41.9728 19.7835 41.9728 19.7222C41.9728 19.6608 41.9728 19.5382 41.9728 19.4769C42.0343 19.3542 41.9113 18.9862 41.6039 18.9249L41.6039 18.9249Z" fill="#1976D2"/>
<path fill-rule="evenodd" clip-rule="evenodd" d="M41.4812 29.4731C41.4812 29.2278 41.6657 28.9825 41.9731 28.9825H42.588V28.3693C42.588 28.1239 42.7725 27.8786 43.0799 27.8786C43.3259 27.8786 43.5719 28.0626 43.5719 28.3693V28.9825H44.1868C44.3098 28.9825 44.4328 29.0438 44.4942 29.1052C44.5557 29.1665 44.6172 29.2892 44.6172 29.4118C44.6172 29.6571 44.4328 29.9024 44.1253 29.9024H43.5104V30.5157C43.5104 30.761 43.3259 31.0063 43.0185 31.0063C42.7725 31.0063 42.5265 30.8223 42.5265 30.5157V29.9024H41.9116C41.6657 29.9637 41.4812 29.7184 41.4812 29.4731ZM46.093 27.94C46.0315 27.5107 45.847 27.1427 45.5396 26.8974C45.3551 26.7134 45.1092 26.5295 44.9247 26.4068C44.1868 25.9775 43.3259 25.6096 42.5265 25.3642C42.465 25.3642 42.4035 25.3029 42.3421 25.3029C42.2806 25.3029 42.2191 25.2416 42.1576 25.2416C41.9731 25.1803 41.7271 25.1189 41.5427 25.0576C41.4812 25.1803 41.4197 25.2416 41.3582 25.3643C41.1737 25.6096 40.9892 25.9162 40.8048 26.1615C40.4973 26.5908 40.1899 26.9587 39.8824 27.3267C39.6979 27.5107 39.5749 27.756 39.3905 27.94C39.3905 27.94 39.3905 27.94 39.329 28.0013C39.2675 28.0626 39.2675 28.0626 39.206 28.124C39.206 28.0013 39.206 27.94 39.1445 27.8173C39.0215 27.0201 38.96 26.3455 38.96 26.2842C39.0215 26.2228 39.0215 26.1002 39.083 26.0388V25.9775C39.083 25.9162 39.1445 25.9162 39.1445 25.8549C39.1445 25.8549 39.1445 25.8549 39.1445 25.7935C39.1445 25.7322 39.206 25.6709 39.206 25.6096C39.206 25.5482 39.206 25.4869 39.1445 25.4256V25.3643V25.3029L39.083 25.2416C39.0215 25.1803 38.96 25.1803 38.8985 25.1803C38.8371 25.1803 38.7141 25.1803 38.6526 25.1803C38.5296 25.1803 38.4681 25.1803 38.3451 25.1803C38.2836 25.1803 38.1607 25.1803 38.0992 25.1803C38.0377 25.1803 38.0377 25.1803 37.9762 25.1803C37.9147 25.1803 37.9147 25.1803 37.8532 25.1803C37.8532 25.1803 37.7917 25.1803 37.7302 25.2416L37.6687 25.3029V25.3643V25.4256C37.6687 25.4869 37.6072 25.5482 37.6072 25.6096C37.6072 25.6709 37.6687 25.7322 37.6687 25.7935C37.6687 25.7935 37.6687 25.7935 37.6687 25.8549C37.6687 25.9162 37.7302 25.9162 37.7302 25.9775V26.0388C37.7302 26.0388 37.7302 26.0388 37.7302 26.1002C37.7917 26.1615 37.7917 26.2228 37.8532 26.3455C37.8532 26.4068 37.7302 27.1427 37.6687 27.8786C37.6687 28.0013 37.6687 28.0626 37.6072 28.1853C37.5457 28.124 37.5457 28.124 37.4843 28.0626C37.2998 27.8173 37.1153 27.6333 36.9308 27.388C36.6234 27.0201 36.3159 26.5908 36.0085 26.2228C35.7625 25.8549 35.5165 25.5482 35.2706 25.1803C35.0246 25.2416 34.7171 25.3029 34.4712 25.4256C33.5488 25.7322 32.6879 26.1002 31.8885 26.5295C31.6426 26.6521 31.4581 26.8361 31.2736 27.0201C30.9662 27.3267 30.7817 27.6947 30.7202 28.0626C30.7202 28.1239 30.7202 28.1853 30.7202 28.3079V30.761V32.5395H46.0315V30.761V28.3079C46.093 28.1239 46.093 28.0013 46.093 27.94L46.093 27.94Z" fill="#1976D2"/>
</svg>
