<svg width="63" height="63" viewBox="0 0 63 63" fill="none" xmlns="http://www.w3.org/2000/svg">
<rect width="63" height="63" rx="31.5" fill="#E3F2FD"/>
<path fill-rule="evenodd" clip-rule="evenodd" d="M18.1465 33.1715C18.1465 27.5809 22.6759 23.0488 28.2633 23.0488C33.8506 23.0488 38.38 27.5809 38.38 33.1715C38.38 38.7621 33.8506 43.2942 28.2633 43.2942C22.6759 43.2942 18.1465 38.7621 18.1465 33.1715Z" fill="#1976D2"/>
<path fill-rule="evenodd" clip-rule="evenodd" d="M24.7047 16.618C24.7047 15.5932 25.535 14.7625 26.5592 14.7625C27.5834 14.7625 28.4136 15.5932 28.4136 16.618C28.4136 17.6428 27.5834 18.4736 26.5592 18.4736C25.535 18.4736 24.7047 17.6428 24.7047 16.618Z" fill="#1976D2"/>
<path fill-rule="evenodd" clip-rule="evenodd" d="M51.6712 18.4194C51.6712 19.0259 51.5365 19.6324 51.3344 20.1715C50.9303 21.3171 50.5262 22.4627 50.1221 23.6083C49.7853 24.5517 49.4486 25.5626 49.1118 26.506C49.0444 26.7756 48.9097 27.0451 48.8424 27.3147C48.9097 27.5168 48.9097 27.6516 48.8424 27.8538C48.6403 29.0668 48.2362 30.2798 47.4953 31.2232C46.9565 31.9645 46.0136 32.7058 45.0707 32.8405H45.0033C44.8013 41.8032 37.4599 49.0138 28.5021 49.0138C19.4096 49.0138 12.0009 41.601 12.0009 32.5036C12.0009 25.1582 16.9176 18.6215 23.9222 16.5999C23.9222 16.7347 23.9222 16.802 23.9222 16.9368C23.9222 17.4759 24.1242 17.8803 24.3937 18.2846C18.1299 20.0367 13.7521 25.8321 13.7521 32.4362C13.7521 40.5902 20.4199 47.2617 28.5695 47.2617C36.6517 47.2617 43.1848 40.7924 43.3869 32.7731H42.7807C42.5113 32.7058 42.2419 32.571 41.9725 32.4362C41.0296 31.8297 40.2887 30.8863 39.8846 29.808C39.6152 29.2015 39.4131 28.5277 39.2784 27.8538C39.2111 27.6516 39.2784 27.382 39.3458 27.1799C38.5375 24.6865 37.7293 22.2605 36.9884 19.9693C36.5843 18.6889 36.719 17.2064 37.3252 16.0608C37.864 15.0499 38.8069 14.3087 39.8172 14.0391C40.0193 13.9717 40.154 13.9043 40.356 13.8369C40.6928 13.7022 40.9622 13.5674 41.299 13.5674C41.7031 13.5 42.0398 13.6348 42.3092 13.9043C42.5113 14.1065 42.646 14.4434 42.646 14.8478C42.646 15.6564 41.9051 16.1282 41.1643 16.1282H41.0969C40.8275 16.1282 40.6255 16.0608 40.4234 15.926C40.2887 15.8586 40.2213 15.8586 40.154 15.7912C39.8846 15.7238 39.6825 15.926 39.4131 16.1282C38.4702 17.0042 38.2008 18.0824 38.5375 19.228C39.3458 21.8562 40.2887 24.3496 41.0296 26.3038C41.0296 26.3712 41.0969 26.506 41.0969 26.5734C41.3663 26.7756 41.5684 27.0451 41.6357 27.3821C41.6357 27.4494 41.7704 28.0559 42.0398 28.7298L42.1745 28.9994C42.646 29.8754 43.1848 30.3472 43.9257 30.4145H43.993H44.0604C44.4645 30.4145 45.9462 30.2124 46.3504 27.3821C46.4177 26.9777 46.6871 26.6408 47.0239 26.4386C47.4953 25.1582 48.0342 23.8105 48.5056 22.4627C48.6403 22.1257 48.775 21.8562 48.9097 21.5192C49.5159 20.1041 50.1221 18.5542 49.5833 17.2738C49.1791 16.3303 48.7077 15.7912 48.2362 15.7912C48.1015 15.7912 47.8995 15.8586 47.7648 15.926C47.5627 15.9934 47.2933 16.1282 47.0239 16.1282C46.8218 16.1282 46.6871 16.0608 46.4851 15.9934C46.0136 15.7238 45.7442 15.3869 45.6768 14.9826C45.6095 14.5108 45.8789 14.0391 46.4177 13.7022C46.6198 13.5674 46.8218 13.5 47.0239 13.5C47.4953 13.5 47.9668 13.7696 48.3036 13.9717C48.3709 14.0391 48.4383 14.0391 48.5056 14.1065C49.1118 14.4434 49.7853 14.7804 50.3915 15.3195C51.3344 15.9934 51.7385 17.139 51.6712 18.4194V18.4194Z" fill="#1976D2"/>
<path fill-rule="evenodd" clip-rule="evenodd" d="M27.6323 35.6494V37.0007H22.4824C22.5246 36.494 22.6934 35.9872 22.9889 35.5228C23.2844 35.0583 23.8332 34.4249 24.6352 33.6648C25.3106 33.0314 25.6905 32.6091 25.8594 32.398C26.0704 32.1024 26.1549 31.8068 26.1549 31.5112C26.1549 31.1734 26.0704 30.92 25.9016 30.7511C25.7327 30.5822 25.4795 30.4978 25.184 30.4978C24.8885 30.4978 24.6352 30.5822 24.4664 30.7934C24.2975 30.9623 24.1709 31.3001 24.1709 31.7223L22.6934 31.5957C22.7779 30.7934 23.0734 30.2022 23.5377 29.8644C24.002 29.5266 24.593 29.3154 25.2684 29.3154C26.0282 29.3154 26.6192 29.5266 27.0413 29.9488C27.4634 30.3711 27.6745 30.8778 27.6745 31.469C27.6745 31.8068 27.6323 32.1446 27.5057 32.4402C27.379 32.7358 27.168 33.0736 26.9147 33.4114C26.7458 33.6225 26.4081 33.9604 25.9438 34.3826C25.4795 34.8049 25.184 35.1005 25.0573 35.2272C24.9307 35.3538 24.8463 35.5227 24.7618 35.6494L27.6323 35.6494Z" fill="white"/>
<path fill-rule="evenodd" clip-rule="evenodd" d="M31.513 34.171V31.5532L29.7407 34.171H31.513ZM31.5132 37.0421V35.4799H28.3906V34.171L31.7242 29.3154H32.948V34.2132H33.9185V35.5221H32.948V37.0843H31.5132V37.0421Z" fill="white"/>
</svg>
