<svg width="44" height="44" viewBox="0 0 44 44" fill="none" xmlns="http://www.w3.org/2000/svg">
<g clip-path="url(#clip0_1539_9476)">
<path fill-rule="evenodd" clip-rule="evenodd" d="M26.5719 3.50484C23.8313 4.67898 19.876 4.67897 17.1355 3.50484C14.9089 2.55086 12.4182 2.4624 10.1201 3.46203C5.27035 5.57156 3.09515 11.7363 5.20596 17.2974C5.20642 17.2986 5.2064 17.3 5.20589 17.3012L5.8646 18.7335C8.09126 23.5753 9.76963 28.6507 10.8684 33.8654L11.9137 38.826C12.2754 40.252 13.5537 41.25 15.0185 41.25C16.5917 41.25 17.9321 40.1026 18.1819 38.5421L19.6555 29.3349C19.829 28.2506 20.7605 27.4532 21.8537 27.4532C22.947 27.4532 23.8784 28.2506 24.052 29.3349L25.5256 38.5421C25.7753 40.1025 27.1158 41.25 28.6889 41.25C30.1537 41.25 31.432 40.252 31.7937 38.826L32.839 33.8654C33.9378 28.6507 35.6162 23.5753 37.8429 18.7335L38.5016 17.3012C38.501 17.3 38.501 17.2986 38.5015 17.2974C40.6123 11.7363 38.4371 5.57156 33.5873 3.46203C31.2892 2.46239 28.7985 2.55086 26.5719 3.50484Z" fill="url(#paint0_linear_1539_9476)"/>
<g filter="url(#filter0_f_1539_9476)">
<path d="M11.0173 6.80101L10.8769 6.13115C10.7999 5.76339 10.4756 5.5 10.0998 5.5C9.71351 5.5 9.38326 5.77801 9.3174 6.15865L9.23637 6.62693C8.90084 8.56614 7.40535 10.0982 5.47483 10.4806L4.44947 10.6837C4.10097 10.7527 3.84986 11.0584 3.84986 11.4137C3.84986 11.7801 4.11656 12.092 4.47852 12.1489L5.27295 12.2737C7.3065 12.5933 8.90632 14.1801 9.24244 16.211L9.3223 16.6935C9.38522 17.0737 9.71397 17.3525 10.0993 17.3525C10.4746 17.3525 10.7977 17.0877 10.8715 16.7197L11.046 15.8491C11.4126 14.0204 12.875 12.6109 14.7159 12.3117L15.6976 12.1522C16.06 12.0933 16.3262 11.7804 16.3262 11.4133C16.3262 11.0577 16.0761 10.7512 15.7277 10.6799L14.7033 10.4701C12.8531 10.0912 11.4047 8.64945 11.0173 6.80101Z" fill="url(#paint1_linear_1539_9476)"/>
</g>
<path d="M10.7353 8.13797L10.4386 5.8045C10.4165 5.63045 10.2684 5.5 10.093 5.5C9.91331 5.5 9.76311 5.63659 9.74609 5.81544L9.52559 8.13271C9.39584 9.49631 8.33215 10.5845 6.97186 10.7453L4.15403 11.0784C3.98055 11.0989 3.84986 11.2459 3.84986 11.4206C3.84986 11.6 3.98751 11.7494 4.16632 11.7641L6.82411 11.982C8.2574 12.0995 9.39885 13.2302 9.52991 14.6623L9.74725 17.0371C9.76359 17.2158 9.9134 17.3525 10.0928 17.3525C10.2681 17.3525 10.4159 17.2217 10.4372 17.0476L10.7293 14.6586C10.9055 13.2176 12.0681 12.0977 13.5146 11.9756L16.0096 11.7649C16.1886 11.7498 16.3262 11.6001 16.3262 11.4205C16.3262 11.2457 16.1958 11.0985 16.0223 11.0773L13.365 10.7538C11.9929 10.5868 10.9096 9.50914 10.7353 8.13797Z" fill="url(#paint2_linear_1539_9476)"/>
<g filter="url(#filter1_f_1539_9476)">
<path d="M32.6141 23.3688L32.5258 22.9476C32.4774 22.7164 32.2735 22.5508 32.0372 22.5508C31.7943 22.5508 31.5867 22.7256 31.5452 22.9649L31.4943 23.2594C31.2833 24.4787 30.343 25.442 29.1291 25.6824L28.4844 25.8101C28.2653 25.8535 28.1074 26.0458 28.1074 26.2691C28.1074 26.4995 28.2751 26.6956 28.5027 26.7314L29.0022 26.8099C30.2808 27.0108 31.2868 28.0086 31.4981 29.2855L31.5483 29.5889C31.5879 29.828 31.7946 30.0033 32.0369 30.0033C32.2728 30.0033 32.476 29.8368 32.5224 29.6054L32.6322 29.058C32.8627 27.9082 33.7822 27.0219 34.9397 26.8338L35.5569 26.7335C35.7848 26.6965 35.9521 26.4997 35.9521 26.2689C35.9521 26.0453 35.7949 25.8526 35.5759 25.8077L34.9317 25.6758C33.7684 25.4376 32.8577 24.5311 32.6141 23.3688Z" fill="url(#paint3_linear_1539_9476)"/>
</g>
<path d="M32.4368 24.2095L32.2502 22.7422C32.2363 22.6328 32.1432 22.5508 32.0329 22.5508C31.9199 22.5508 31.8255 22.6367 31.8148 22.7491L31.6761 24.2061C31.5946 25.0635 30.9257 25.7478 30.0704 25.8489L28.2987 26.0583C28.1896 26.0712 28.1074 26.1637 28.1074 26.2735C28.1074 26.3863 28.194 26.4802 28.3064 26.4895L29.9775 26.6265C30.8787 26.7003 31.5965 27.4113 31.6789 28.3118L31.8155 29.805C31.8258 29.9173 31.92 30.0033 32.0328 30.0033C32.143 30.0033 32.236 29.921 32.2493 29.8116L32.433 28.3094C32.5438 27.4034 33.2748 26.6992 34.1843 26.6224L35.7531 26.49C35.8656 26.4805 35.9521 26.3863 35.9521 26.2734C35.9521 26.1635 35.8701 26.0709 35.7611 26.0576L34.0902 25.8542C33.2275 25.7492 32.5463 25.0716 32.4368 24.2095Z" fill="url(#paint4_linear_1539_9476)"/>
</g>
<defs>
<filter id="filter0_f_1539_9476" x="-0.150391" y="1.5" width="20.4766" height="19.8516" filterUnits="userSpaceOnUse" color-interpolation-filters="sRGB">
<feFlood flood-opacity="0" result="BackgroundImageFix"/>
<feBlend mode="normal" in="SourceGraphic" in2="BackgroundImageFix" result="shape"/>
<feGaussianBlur stdDeviation="2" result="effect1_foregroundBlur_1539_9476"/>
</filter>
<filter id="filter1_f_1539_9476" x="24.1074" y="18.5508" width="15.8447" height="15.4531" filterUnits="userSpaceOnUse" color-interpolation-filters="sRGB">
<feFlood flood-opacity="0" result="BackgroundImageFix"/>
<feBlend mode="normal" in="SourceGraphic" in2="BackgroundImageFix" result="shape"/>
<feGaussianBlur stdDeviation="2" result="effect1_foregroundBlur_1539_9476"/>
</filter>
<linearGradient id="paint0_linear_1539_9476" x1="9.02039" y1="2.75" x2="30.0671" y2="39.71" gradientUnits="userSpaceOnUse">
<stop stop-color="#F0F6F9"/>
<stop offset="1" stop-color="#CDDFF2"/>
</linearGradient>
<linearGradient id="paint1_linear_1539_9476" x1="10.088" y1="5.5" x2="10.088" y2="17.3525" gradientUnits="userSpaceOnUse">
<stop stop-color="white"/>
<stop offset="1" stop-color="white"/>
</linearGradient>
<linearGradient id="paint2_linear_1539_9476" x1="10.088" y1="5.5" x2="10.088" y2="17.3525" gradientUnits="userSpaceOnUse">
<stop stop-color="white"/>
<stop offset="1" stop-color="white"/>
</linearGradient>
<linearGradient id="paint3_linear_1539_9476" x1="32.0298" y1="22.5508" x2="32.0298" y2="30.0033" gradientUnits="userSpaceOnUse">
<stop stop-color="white"/>
<stop offset="1" stop-color="white"/>
</linearGradient>
<linearGradient id="paint4_linear_1539_9476" x1="32.0298" y1="22.5508" x2="32.0298" y2="30.0033" gradientUnits="userSpaceOnUse">
<stop stop-color="white"/>
<stop offset="1" stop-color="white"/>
</linearGradient>
<clipPath id="clip0_1539_9476">
<rect width="44" height="44" fill="white"/>
</clipPath>
</defs>
</svg>
