<svg width="44" height="44" viewBox="0 0 44 44" fill="none" xmlns="http://www.w3.org/2000/svg">
<path fill-rule="evenodd" clip-rule="evenodd" d="M26.5719 3.50484C23.8313 4.67898 19.876 4.67897 17.1355 3.50484C14.9089 2.55086 12.4182 2.4624 10.1201 3.46203C5.27035 5.57156 3.09515 11.7363 5.20596 17.2974C5.20642 17.2986 5.2064 17.3 5.20589 17.3012L5.8646 18.7335C8.09126 23.5753 9.76963 28.6507 10.8684 33.8654L11.9137 38.826C12.2754 40.252 13.5537 41.25 15.0185 41.25C16.5917 41.25 17.9321 40.1026 18.1819 38.5421L19.6555 29.3349C19.829 28.2506 20.7605 27.4532 21.8537 27.4532C22.947 27.4532 23.8784 28.2506 24.052 29.3349L25.5256 38.5421C25.7753 40.1025 27.1158 41.25 28.6889 41.25C30.1537 41.25 31.432 40.252 31.7937 38.826L32.839 33.8654C33.9378 28.6507 35.6162 23.5753 37.8429 18.7335L38.5016 17.3012C38.501 17.3 38.501 17.2986 38.5015 17.2974C40.6123 11.7363 38.4371 5.57156 33.5873 3.46203C31.2892 2.46239 28.7985 2.55086 26.5719 3.50484Z" fill="url(#paint0_linear_1539_9548)"/>
<path d="M4.68124 15.5324C6.4207 19.7228 9.25468 24.1711 13.719 28.0091C15.4492 29.4966 17.3212 30.7349 19.2672 31.7608L19.6555 29.3349C19.829 28.2506 20.7605 27.4532 21.8537 27.4532C22.947 27.4532 23.8784 28.2506 24.052 29.3349L24.8138 34.0947C27.3787 34.9353 29.9615 35.4897 32.4245 35.8323L32.839 33.8654C33.9378 28.6507 35.6162 23.5753 37.8428 18.7335L38.5016 17.3012C38.501 17.3 38.501 17.2986 38.5015 17.2974C40.6123 11.7363 38.4371 5.57156 33.5873 3.46203C31.2892 2.46239 28.7985 2.55086 26.5719 3.50484C23.8313 4.67898 19.876 4.67897 17.1355 3.50484C14.9089 2.55086 12.4182 2.4624 10.1201 3.46203C5.77919 5.35023 3.58103 10.4873 4.68124 15.5324Z" fill="url(#paint1_linear_1539_9548)"/>
<path d="M4.68124 15.5324C6.4207 19.7228 9.25468 24.1711 13.719 28.0091C15.4492 29.4966 17.3212 30.7349 19.2672 31.7608L19.6555 29.3349C19.829 28.2506 20.7605 27.4532 21.8537 27.4532C22.947 27.4532 23.8784 28.2506 24.052 29.3349L24.8138 34.0947C27.3787 34.9353 29.9615 35.4897 32.4245 35.8323L32.839 33.8654C33.9378 28.6507 35.6162 23.5753 37.8428 18.7335L38.5016 17.3012C38.501 17.3 38.501 17.2986 38.5015 17.2974C40.6123 11.7363 38.4371 5.57156 33.5873 3.46203C31.2892 2.46239 28.7985 2.55086 26.5719 3.50484C23.8313 4.67898 19.876 4.67897 17.1355 3.50484C14.9089 2.55086 12.4182 2.4624 10.1201 3.46203C5.77919 5.35023 3.58103 10.4873 4.68124 15.5324Z" fill="url(#paint2_linear_1539_9548)" fill-opacity="0.1"/>
<path d="M4.68124 15.5324C6.4207 19.7228 9.25468 24.1711 13.719 28.0091C15.4492 29.4966 17.3212 30.7349 19.2672 31.7608L19.6555 29.3349C19.829 28.2506 20.7605 27.4532 21.8537 27.4532C22.947 27.4532 23.8784 28.2506 24.052 29.3349L24.8138 34.0947C27.3787 34.9353 29.9615 35.4897 32.4245 35.8323L32.839 33.8654C33.9378 28.6507 35.6162 23.5753 37.8428 18.7335L38.5016 17.3012C38.501 17.3 38.501 17.2986 38.5015 17.2974C40.6123 11.7363 38.4371 5.57156 33.5873 3.46203C31.2892 2.46239 28.7985 2.55086 26.5719 3.50484C23.8313 4.67898 19.876 4.67897 17.1355 3.50484C14.9089 2.55086 12.4182 2.4624 10.1201 3.46203C5.77919 5.35023 3.58103 10.4873 4.68124 15.5324Z" fill="url(#paint3_linear_1539_9548)" fill-opacity="0.1"/>
<path d="M16.552 30.151C15.9122 29.726 15.285 29.2738 14.6731 28.7929C14.3777 26.2514 13.7137 23.7608 12.6976 21.4008L10.3007 15.8338C8.6765 12.0615 12.088 8.06612 16.0683 9.07927L18.7362 9.75837C20.5167 10.2116 22.3825 10.2116 24.1631 9.75837L27.1152 9.00693C31.0431 8.0071 34.4421 11.8937 32.9278 15.6533L30.5114 21.6527C29.2486 24.7878 28.5996 28.1362 28.5996 31.516V35.1364C28.1936 35.0446 27.7863 34.9464 27.3784 34.8416L26.701 28.237C26.514 26.4139 25.3857 24.8219 23.7274 24.0415C22.4589 23.4446 20.9903 23.4446 19.7219 24.0415C18.0636 24.8219 16.9353 26.4139 16.7483 28.237L16.552 30.151Z" fill="url(#paint4_radial_1539_9548)"/>
<defs>
<linearGradient id="paint0_linear_1539_9548" x1="9.02039" y1="2.75" x2="30.0671" y2="39.71" gradientUnits="userSpaceOnUse">
<stop stop-color="#F0F6F9"/>
<stop offset="1" stop-color="#CDDFF2"/>
</linearGradient>
<linearGradient id="paint1_linear_1539_9548" x1="33.5503" y1="1.65" x2="21.4503" y2="26.675" gradientUnits="userSpaceOnUse">
<stop stop-color="#E0EDF6"/>
<stop offset="1" stop-color="#A5CAE8"/>
</linearGradient>
<linearGradient id="paint2_linear_1539_9548" x1="7.97527" y1="26.675" x2="11.5503" y2="22" gradientUnits="userSpaceOnUse">
<stop stop-color="#043A70"/>
<stop offset="1" stop-color="#065099" stop-opacity="0"/>
</linearGradient>
<linearGradient id="paint3_linear_1539_9548" x1="32.4503" y1="35.75" x2="33.2753" y2="31.9" gradientUnits="userSpaceOnUse">
<stop stop-color="#002C57"/>
<stop offset="1" stop-color="#065099" stop-opacity="0"/>
</linearGradient>
<radialGradient id="paint4_radial_1539_9548" cx="0" cy="0" r="1" gradientUnits="userSpaceOnUse" gradientTransform="translate(21.5913 23.903) rotate(-70.7665) scale(16.032 14.1911)">
<stop stop-color="#F8BAB9"/>
<stop offset="1" stop-color="#C9706F"/>
</radialGradient>
</defs>
</svg>
