<svg width="44" height="44" viewBox="0 0 44 44" fill="none" xmlns="http://www.w3.org/2000/svg">
<path d="M7.7002 19.7999C11.3037 21.7328 15.3295 22.7443 19.4187 22.7443H24.2505C28.4054 22.7443 32.4885 21.6611 36.097 19.6016L33.0926 37.9499H9.49839L7.7002 19.7999Z" fill="url(#paint0_linear_1539_9530)"/>
<path d="M4.04254 22.0045C3.93832 20.5154 5.11821 19.25 6.61096 19.25C7.77532 19.25 8.79477 20.0314 9.09725 21.1558L12.5898 34.1381C13.0293 35.7718 14.4298 36.9661 16.1125 37.142C17.6289 37.3005 19.1075 36.602 19.9482 35.33L19.9786 35.284C20.2537 34.8677 20.4221 34.3901 20.4689 33.8934L20.9066 29.2468C20.9634 28.6437 21.8108 28.562 21.9818 29.1431L23.4602 34.1681C23.5542 34.4876 23.6953 34.7912 23.8789 35.0691L24.0513 35.33C24.892 36.602 26.3706 37.3005 27.8871 37.142C29.5698 36.9661 30.9702 35.7718 31.4098 34.1381L34.9023 21.1558C35.2048 20.0314 36.2242 19.25 37.3886 19.25C38.8813 19.25 40.0612 20.5154 39.957 22.0045L39.0012 35.6608C38.7592 39.1186 35.8835 41.8 32.4173 41.8H11.5822C8.11598 41.8 5.24035 39.1186 4.99834 35.6608L4.04254 22.0045Z" fill="#F7A6A5"/>
<path fill-rule="evenodd" clip-rule="evenodd" d="M21.7971 3.78091C19.7976 5.04602 16.697 5.54942 14.4 4.9819C12.5336 4.52081 10.57 4.76876 8.89518 5.84138C5.36077 8.10493 4.43675 13.1928 6.79605 17.2641C6.79657 17.265 6.79673 17.2661 6.79648 17.2671L7.49433 18.3011C9.85329 21.7962 11.8121 25.5436 13.3342 29.4734L14.7821 33.2116C15.2464 34.2785 16.3748 34.8946 17.5231 34.7082C18.7563 34.508 19.6617 33.4419 19.6597 32.1923L19.6483 24.8193C19.6469 23.951 20.2761 23.2102 21.133 23.071C21.99 22.9319 22.8212 23.4356 23.0947 24.2598L25.4164 31.2576C25.8099 32.4436 27.0061 33.1685 28.2393 32.9683C29.3876 32.7819 30.2631 31.8403 30.366 30.6814L30.5568 26.6771C30.7575 22.4676 31.43 18.293 32.562 14.2311L32.8969 13.0295C32.8963 13.0286 32.8961 13.0275 32.8963 13.0265C33.8464 8.41786 31.3601 3.88366 27.2911 2.85461C25.3629 2.36696 23.4217 2.753 21.7971 3.78091Z" fill="url(#paint1_linear_1539_9530)"/>
<defs>
<linearGradient id="paint0_linear_1539_9530" x1="23.6502" y1="19.7999" x2="23.3916" y2="37.1252" gradientUnits="userSpaceOnUse">
<stop stop-color="#C15D5D"/>
<stop offset="0.828884" stop-color="#D7908E"/>
</linearGradient>
<linearGradient id="paint1_linear_1539_9530" x1="7.9429" y1="5.42567" x2="29.0239" y2="31.6718" gradientUnits="userSpaceOnUse">
<stop stop-color="#F0F6F9"/>
<stop offset="1" stop-color="#CDDFF2"/>
</linearGradient>
</defs>
</svg>
