<svg width="44" height="44" viewBox="0 0 44 44" fill="none" xmlns="http://www.w3.org/2000/svg">
<path fill-rule="evenodd" clip-rule="evenodd" d="M26.5719 3.50484C23.8313 4.67898 19.876 4.67897 17.1355 3.50484C14.9089 2.55086 12.4182 2.4624 10.1201 3.46203C5.26941 5.57197 3.0943 11.7387 5.20719 17.3007L5.20589 17.3012L8.66505 26.0189L11.9137 38.826C12.2754 40.252 13.5537 41.25 15.0185 41.25C16.5917 41.25 17.9321 40.1026 18.1819 38.5421L19.6555 29.3349C19.829 28.2506 20.7605 27.4532 21.8537 27.4532C22.947 27.4532 23.8784 28.2506 24.052 29.3349L25.5256 38.5421C25.7753 40.1025 27.1158 41.25 28.6889 41.25C30.1537 41.25 31.432 40.252 31.7937 38.826L35.0424 26.0189L38.5016 17.3012L38.5003 17.3007C40.6131 11.7387 38.438 5.57197 33.5873 3.46203C31.2892 2.46239 28.7985 2.55086 26.5719 3.50484Z" fill="url(#paint0_linear_1539_9512)"/>
<mask id="mask0_1539_9512" style="mask-type:alpha" maskUnits="userSpaceOnUse" x="5" y="6" width="35" height="36">
<path fill-rule="evenodd" clip-rule="evenodd" d="M5.27246 17.4712L8.66448 26.0196L11.9131 38.8267C12.2749 40.2527 13.5531 41.2507 15.0179 41.2507C16.5911 41.2507 17.9316 40.1033 18.1813 38.5428L19.6549 29.3357C19.8285 28.2513 20.76 27.4539 21.8532 27.4539C22.9464 27.4539 23.8779 28.2513 24.0514 29.3357L25.525 38.5428C25.7747 40.1033 27.1152 41.2507 28.6884 41.2507C30.1532 41.2507 31.4314 40.2527 31.7932 38.8267L35.0418 26.0196L38.501 17.302L38.4997 17.3014C39.8892 13.6436 39.4242 9.72418 37.5632 6.86914L5.27246 17.4712Z" fill="url(#paint1_linear_1539_9512)"/>
</mask>
<g mask="url(#mask0_1539_9512)">
<rect y="6.86914" width="42.6387" height="37.1316" fill="url(#paint2_linear_1539_9512)"/>
<g filter="url(#filter0_f_1539_9512)">
<path d="M26.9734 21.7738C28.9479 22.4614 31.1102 21.4474 31.8443 19.4898L34.3021 12.9358L36.899 7.15039L6.76758 17.0365C9.7506 16.5662 12.8036 16.8397 15.6555 17.8327L26.9734 21.7738Z" fill="url(#paint3_linear_1539_9512)" fill-opacity="0.17"/>
</g>
<g filter="url(#filter1_f_1539_9512)">
<path d="M20.3435 19.677C27.1874 22.2207 34.5911 17.6195 35.3407 10.3567C35.3885 9.89291 35.5432 9.44652 35.7926 9.05256L37.6331 6.14453L36.899 7.15041L6.76758 17.0366L7.03885 16.9938C9.83999 16.5521 12.7077 16.839 15.3658 17.8269L20.3435 19.677Z" fill="url(#paint4_linear_1539_9512)" fill-opacity="0.17"/>
</g>
<g filter="url(#filter2_f_1539_9512)">
<path d="M26.2317 21.866C30.0505 23.2853 34.1644 20.6482 34.4691 16.5856C34.6046 14.7796 35.0076 13.0038 35.665 11.3162L36.8824 8.19074C37.2081 7.35476 36.3108 6.56885 35.525 7.00182L6.76758 17.0371L9.10555 16.6684C10.5517 16.4404 12.0323 16.5885 13.4046 17.0986L26.2317 21.866Z" fill="url(#paint5_linear_1539_9512)" fill-opacity="0.17"/>
</g>
<path d="M32.7441 14.7869C31.4579 17.6938 28.2823 19.2709 25.1889 18.5389L18.8398 17.0367C14.4095 16.1871 9.84705 16.3159 5.47168 17.414L37.5914 6.85938C36.5936 7.18727 35.7814 7.92268 35.3564 8.8832L32.7441 14.7869Z" fill="url(#paint6_linear_1539_9512)"/>
</g>
<defs>
<filter id="filter0_f_1539_9512" x="5.76758" y="6.15039" width="32.1318" height="16.8379" filterUnits="userSpaceOnUse" color-interpolation-filters="sRGB">
<feFlood flood-opacity="0" result="BackgroundImageFix"/>
<feBlend mode="normal" in="SourceGraphic" in2="BackgroundImageFix" result="shape"/>
<feGaussianBlur stdDeviation="0.5" result="effect1_foregroundBlur_1539_9512"/>
</filter>
<filter id="filter1_f_1539_9512" x="1.76758" y="1.14453" width="40.8652" height="24.2402" filterUnits="userSpaceOnUse" color-interpolation-filters="sRGB">
<feFlood flood-opacity="0" result="BackgroundImageFix"/>
<feBlend mode="normal" in="SourceGraphic" in2="BackgroundImageFix" result="shape"/>
<feGaussianBlur stdDeviation="2.5" result="effect1_foregroundBlur_1539_9512"/>
</filter>
<filter id="filter2_f_1539_9512" x="1.76758" y="1.87891" width="40.1836" height="25.375" filterUnits="userSpaceOnUse" color-interpolation-filters="sRGB">
<feFlood flood-opacity="0" result="BackgroundImageFix"/>
<feBlend mode="normal" in="SourceGraphic" in2="BackgroundImageFix" result="shape"/>
<feGaussianBlur stdDeviation="2.5" result="effect1_foregroundBlur_1539_9512"/>
</filter>
<linearGradient id="paint0_linear_1539_9512" x1="4.40013" y1="-6.875" x2="22.0001" y2="26.125" gradientUnits="userSpaceOnUse">
<stop stop-color="#F6F1E8"/>
<stop offset="1" stop-color="#D8B682"/>
</linearGradient>
<linearGradient id="paint1_linear_1539_9512" x1="9.09792" y1="2.75073" x2="29.964" y2="40.0101" gradientUnits="userSpaceOnUse">
<stop stop-color="#F1F7FA"/>
<stop offset="1" stop-color="#CFE0F3"/>
</linearGradient>
<linearGradient id="paint2_linear_1539_9512" x1="14.5896" y1="12.8496" x2="27.4567" y2="40.5194" gradientUnits="userSpaceOnUse">
<stop stop-color="#F0F6FA"/>
<stop offset="1" stop-color="#CEE0F3"/>
</linearGradient>
<linearGradient id="paint3_linear_1539_9512" x1="26.8184" y1="11.5001" x2="29.4744" y2="24.3374" gradientUnits="userSpaceOnUse">
<stop stop-color="#134980"/>
<stop offset="1" stop-color="#236BB4" stop-opacity="0"/>
</linearGradient>
<linearGradient id="paint4_linear_1539_9512" x1="26.8184" y1="11.5001" x2="29.4744" y2="24.3374" gradientUnits="userSpaceOnUse">
<stop stop-color="#134980"/>
<stop offset="1" stop-color="#236BB4" stop-opacity="0"/>
</linearGradient>
<linearGradient id="paint5_linear_1539_9512" x1="26.8184" y1="11.5007" x2="29.4744" y2="24.338" gradientUnits="userSpaceOnUse">
<stop stop-color="#134980"/>
<stop offset="1" stop-color="#236BB4" stop-opacity="0"/>
</linearGradient>
<linearGradient id="paint6_linear_1539_9512" x1="25.031" y1="18.7457" x2="22.5211" y2="11.8066" gradientUnits="userSpaceOnUse">
<stop stop-color="#F4F8FB"/>
<stop offset="0.651561" stop-color="white"/>
<stop offset="1" stop-color="#F9F6F2"/>
</linearGradient>
</defs>
</svg>
