<svg width="104" height="105" viewBox="0 0 104 105" fill="none" xmlns="http://www.w3.org/2000/svg">
<path fill-rule="evenodd" clip-rule="evenodd" d="M75.5317 79.6182H71.6946V83.445C71.6946 85.0395 70.4156 86.3151 68.8168 86.3151C67.218 86.3151 65.939 85.0395 65.939 83.445V79.6182H62.102C60.5032 79.6182 59.2242 78.3426 59.2242 76.7481C59.2242 75.1536 60.5032 73.878 62.102 73.878H65.7791V70.0512C65.7791 68.4567 67.0582 67.1811 68.6569 67.1811H68.8168C70.4156 67.1811 71.6946 68.4567 71.6946 70.0512V73.878H75.5317C76.331 73.878 76.9706 74.1969 77.4502 74.6753C77.9298 75.1536 78.2496 75.9508 78.2496 76.7481C78.2496 78.3426 76.9706 79.6182 75.5317 79.6182L75.5317 79.6182ZM101.432 61.6004C100.952 59.687 99.1935 58.252 97.1151 58.252H40.3587C39.2395 58.252 38.1204 58.7303 37.321 59.5275C36.5216 60.3248 36.042 61.6004 36.042 62.876C36.2019 65.1083 38.2803 66.7028 40.5186 66.7028H44.6754V92.2147C44.6754 93.8092 45.9544 95.2442 47.713 95.2442H89.7608C91.3595 95.2442 92.7984 93.9686 92.7984 92.2147V66.7028H97.1151C98.2343 66.7028 99.3534 66.2244 100.153 65.4272C101.272 64.4705 101.752 63.0354 101.432 61.6004H101.432Z" fill="#1976D2"/>
<path fill-rule="evenodd" clip-rule="evenodd" d="M29.1666 36.0913C29.1666 40.236 26.1301 43.2648 21.9749 43.2648C17.8197 43.2648 14.7833 40.236 14.7833 36.0913C14.7833 32.1061 17.9796 28.7584 21.9749 28.7584C25.9703 28.9178 29.3264 32.1061 29.1666 36.0913Z" fill="#1976D2"/>
<path fill-rule="evenodd" clip-rule="evenodd" d="M24.6926 90.6165C26.4513 90.6165 28.2101 90.4571 30.1288 90.4571C31.7276 90.2977 33.3265 90.2977 34.7655 90.2977C36.5243 90.2977 38.1231 88.8627 38.1231 86.9495C38.1231 85.0362 36.6841 83.6012 34.7655 83.6012C33.1666 83.6012 31.4079 83.7607 29.809 83.7607C26.1316 83.9201 22.2942 84.0796 19.2564 83.4418C16.5383 82.9635 14.14 81.3691 12.5411 78.9775C11.1021 76.9048 10.7823 74.5132 10.3027 71.4839C10.3027 71.0056 10.1428 70.5273 10.1428 70.2084L7.90436 55.6995C7.58458 53.9457 5.98572 52.6701 4.06706 52.989C2.30829 53.3079 1.02919 54.9023 1.34897 56.8156L3.5874 71.3245C3.5874 71.8028 3.74728 72.1217 3.74728 72.6C4.22694 75.9482 4.7066 79.6153 7.10492 82.9635C9.66313 86.6306 13.3405 89.1816 17.6575 89.9788C19.8959 90.4571 22.2943 90.6165 24.6926 90.6165H24.6926Z" fill="#1976D2"/>
<path fill-rule="evenodd" clip-rule="evenodd" d="M29.0117 70.3723C29.0117 70.3723 35.4063 70.6913 39.7226 71.0102C40.2022 71.0102 40.522 71.3292 40.522 71.8077V80.7387C40.522 81.2171 40.2022 81.5361 39.7226 81.5361C38.7634 81.5361 36.8451 81.5361 36.0457 81.5361C32.209 81.5361 28.3722 81.5361 24.3756 81.5361C18.3007 81.5361 15.1034 78.8249 15.1034 72.7645C14.9435 66.2258 14.4639 59.8465 13.9843 53.4672C13.6646 49.4801 16.3823 46.131 20.2191 45.6525H20.3789C21.6578 45.4931 22.7769 45.812 23.896 46.2905C25.8143 47.2474 27.2531 49.1612 27.7327 51.7129C28.0525 53.7861 28.2123 55.8594 28.3722 58.0922C28.3722 58.7301 28.532 59.2086 28.532 59.8465L29.0117 70.3723Z" fill="#1976D2"/>
<path fill-rule="evenodd" clip-rule="evenodd" d="M76.6512 22.2158C76.6512 22.5347 76.6512 22.6941 76.6512 22.8536C76.6512 23.013 76.6512 23.3319 76.4913 23.4914C76.4913 23.6508 76.4913 23.8103 76.4913 23.9697C76.4913 24.6075 76.3314 24.9264 76.0117 25.2453C75.8518 25.2453 75.8518 25.4048 75.6919 25.4048C75.6919 25.4048 75.6919 25.4048 75.5321 25.5642C75.5321 25.5642 75.5321 25.7237 75.3722 25.7237C75.2123 26.0426 74.8926 26.5209 74.8926 26.5209C74.4129 27.6371 73.9333 28.5938 73.1339 29.5505C71.8549 31.145 70.0962 31.9422 68.1777 31.6233C67.3783 31.4639 66.5789 31.145 65.7796 30.6666C64.5005 30.0288 63.3814 28.5938 62.9018 27.3182C62.9018 27.1587 62.4221 26.0426 62.2623 25.5642H62.1024C62.1024 25.5642 62.1024 25.5642 61.9425 25.5642C61.303 25.2453 61.1431 24.4481 60.9833 23.9697C60.9833 23.8103 60.9833 23.6508 60.9833 23.4914C60.9833 23.3319 60.9833 23.013 60.8234 22.8536C60.8234 22.6941 60.8234 22.5347 60.8234 22.3752V22.2158C60.8234 22.0563 60.8234 21.8969 60.9833 21.8969H61.1431H61.303H61.4629H61.6228C61.7826 21.8969 61.7826 21.7374 61.9425 21.578C62.1024 21.4185 62.1024 21.2591 62.1024 20.9402C62.1024 20.6213 62.1024 20.3024 61.9425 19.9835C63.7012 19.9835 65.2999 19.9835 67.0586 19.6646C67.5382 19.5052 68.0178 19.5052 68.4975 19.3457C69.9364 19.0268 71.3753 18.389 72.6543 17.4323C73.2938 18.2296 74.0932 18.8674 75.0524 19.1863H75.2123C75.2123 19.5052 75.0524 19.8241 75.0524 19.9835V20.3024C75.0524 20.6213 74.8926 20.9402 75.0524 21.2591C75.0524 21.4185 75.2123 21.4185 75.2123 21.578C75.5321 21.8969 75.8518 21.8969 76.1716 21.8969C76.4913 21.7375 76.6512 21.8969 76.6512 22.2158V22.2158ZM76.9703 20.3024C76.9703 20.3024 76.9703 20.143 76.9703 20.3024V19.9835C76.9703 19.6646 76.9703 19.5052 77.1302 19.1863C77.2901 18.389 77.45 17.5918 77.45 16.954C77.6098 14.4028 76.1709 12.33 73.9326 11.2138C73.6129 11.0544 73.453 11.0544 73.1333 10.8949C71.6944 10.4166 70.2555 10.0977 68.8166 10.0977C68.4968 10.0977 68.1771 10.0977 67.8573 10.0977C66.8981 10.0977 65.7789 10.2571 64.6598 10.7355C64.4999 10.7355 64.4999 10.8949 64.34 10.8949C63.8604 11.2138 63.5406 11.5327 63.2209 12.0111C62.7412 12.33 62.4215 12.6489 62.1017 12.9677C61.6221 13.1272 61.3023 13.4461 60.9826 13.9244C60.6628 14.5622 60.5029 15.2 60.5029 16.1567C60.5029 17.1134 60.5029 17.9107 60.5029 18.5485C60.5029 18.8674 60.6628 19.1863 60.6628 19.5052C60.6628 19.6646 60.8227 19.9835 60.8227 20.143C60.8227 20.143 60.8227 20.143 60.6628 20.143C59.8634 20.3024 59.3838 21.2591 59.3838 22.0564C59.3838 22.2158 59.3838 22.5347 59.3838 22.6942C59.3838 23.0131 59.3838 23.332 59.5437 23.4914C59.5437 23.6509 59.5437 23.8103 59.5437 23.9698C59.7035 25.2453 60.343 26.202 61.3023 26.6804C61.3023 26.6804 61.3023 26.6804 61.3023 26.8398C62.1017 30.1883 64.8196 32.58 67.8573 33.0584C68.177 33.0584 68.4968 33.0584 68.9764 33.0584C71.3746 33.0584 73.453 31.7828 74.8919 29.391C75.2116 28.9127 75.3715 28.4343 75.6913 27.956C75.8511 27.7965 75.8511 27.4776 75.8511 27.3182C75.8511 26.9993 76.011 26.8398 76.011 26.6804C76.1709 26.5209 76.3308 26.3615 76.4906 26.202L76.8104 25.8831C77.6098 25.2453 77.7697 24.2886 77.7697 23.6509C77.7697 23.4914 77.7697 23.332 77.7697 23.1725C77.7697 22.8536 77.9295 22.5347 77.9295 22.3753C77.9295 22.2158 77.9295 21.8969 77.9295 21.7375C78.0894 21.4186 77.7697 20.4619 76.9703 20.3024L76.9703 20.3024Z" fill="#1976D2"/>
<path fill-rule="evenodd" clip-rule="evenodd" d="M76.6514 47.7284C76.6514 47.0906 77.131 46.4528 77.9304 46.4528H79.5291V44.8583C79.5291 44.2205 80.0088 43.5827 80.8082 43.5827C81.4477 43.5827 82.0872 44.061 82.0872 44.8583V46.4528H83.6859C84.0057 46.4528 84.3254 46.6122 84.4853 46.7717C84.6452 46.9311 84.8051 47.25 84.8051 47.5689C84.8051 48.2067 84.3255 48.8445 83.5261 48.8445H81.9273V50.439C81.9273 51.0768 81.4477 51.7146 80.6483 51.7146C80.0088 51.7146 79.3693 51.2363 79.3693 50.439V48.8445H77.7705C77.131 49.004 76.6514 48.3662 76.6514 47.7284ZM88.6421 43.7421C88.4823 42.626 88.0026 41.6693 87.2032 41.0315C86.7236 40.5532 86.0841 40.0748 85.6045 39.7559C83.6859 38.6398 81.4477 37.6831 79.3693 37.0453C79.2094 37.0453 79.0495 36.8858 78.8896 36.8858C78.7298 36.8858 78.5699 36.7264 78.41 36.7264C77.9304 36.5669 77.2908 36.4075 76.8112 36.248C76.6513 36.5669 76.4915 36.7264 76.3316 37.0453C75.852 37.6831 75.3723 38.4803 74.8927 39.1181C74.0933 40.2343 73.2939 41.191 72.4945 42.1477C72.0149 42.626 71.6951 43.2638 71.2155 43.7422C71.2155 43.7422 71.2155 43.7422 71.0556 43.9016C70.8958 44.0611 70.8958 44.0611 70.7359 44.2205C70.7359 43.9016 70.7359 43.7422 70.576 43.4233C70.2562 41.3504 70.0964 39.5965 70.0964 39.437C70.2563 39.2776 70.2563 38.9587 70.4161 38.7992V38.6398C70.4161 38.4803 70.576 38.4803 70.576 38.3209C70.576 38.3209 70.576 38.3209 70.576 38.1614C70.576 38.002 70.7359 37.8425 70.7359 37.6831C70.7359 37.5237 70.7359 37.3642 70.576 37.2048V37.0453V36.8859L70.4161 36.7264C70.2563 36.567 70.0964 36.567 69.9365 36.567C69.7766 36.567 69.4569 36.567 69.297 36.567C68.9773 36.567 68.8174 36.567 68.4976 36.567C68.3377 36.567 68.018 36.567 67.8581 36.567C67.6982 36.567 67.6982 36.567 67.5384 36.567C67.3785 36.567 67.3785 36.567 67.2186 36.567C67.2186 36.567 67.0587 36.567 66.8988 36.7264L66.739 36.8859V37.0453V37.2048C66.739 37.3642 66.5791 37.5237 66.5791 37.6831C66.5791 37.8425 66.739 38.002 66.739 38.1614C66.739 38.1614 66.739 38.1614 66.739 38.3209C66.739 38.4803 66.8988 38.4803 66.8988 38.6398V38.7992C66.8988 38.7992 66.8988 38.7992 66.8988 38.9587C67.0587 39.1181 67.0587 39.2776 67.2186 39.5965C67.2186 39.7559 66.8988 41.6693 66.739 43.5827C66.739 43.9016 66.739 44.0611 66.5791 44.38C66.4192 44.2205 66.4192 44.2205 66.2593 44.0611C65.7797 43.4233 65.3001 42.9449 64.8205 42.3071C64.0211 41.3504 63.2217 40.2343 62.4223 39.2776C61.7828 38.3209 61.1433 37.5236 60.5038 36.5669C59.8643 36.7264 59.0649 36.8858 58.4254 37.2047C56.0272 38.002 53.7889 38.9587 51.7105 40.0748C51.071 40.3937 50.5914 40.8721 50.1117 41.3504C49.3124 42.1477 48.8327 43.1044 48.6729 44.0611C48.6729 44.2205 48.6729 44.38 48.6729 44.6989V51.0768V55.7009H88.4823V51.0768V44.6989C88.6422 44.2205 88.6422 43.9016 88.6422 43.7422L88.6421 43.7421Z" fill="#1976D2"/>
</svg>
