<svg width="215" height="56" viewBox="0 0 215 56" fill="none" xmlns="http://www.w3.org/2000/svg">
<path fill-rule="evenodd" clip-rule="evenodd" d="M36.1618 7.86713C31.7899 6.39069 27.99 8.53496 25.7199 9.8165L25.6194 9.87301C25.4617 9.96169 25.3121 10.0459 25.1702 10.124C24.8726 10.2881 24.5106 10.2578 24.2422 10.0461C22.0418 8.31147 19.4774 6.46108 16.8847 6.46108C14.3668 6.44876 11.9047 7.23449 9.82656 8.71357C8.82871 9.43023 7.93614 10.2934 7.17549 11.2758C7.13278 11.3611 7.08035 11.4412 7.01947 11.5142C3.2623 16.5441 3.42508 23.6302 7.40888 28.4677C7.43214 28.4959 7.4537 28.5249 7.47315 28.5557C7.53111 28.6462 7.60248 28.7502 7.67467 28.8554L7.68879 28.876L7.70936 28.906C7.78534 29.0169 7.86059 29.1267 7.92303 29.2236C9.7327 31.7453 10.5686 35.1601 10.8447 36.5138C11.0468 37.5644 11.2506 38.6932 11.3872 39.9026C11.7669 43.3245 12.4083 46.1907 13.2425 48.1937L13.2472 48.2272C14.1131 50.3899 15.1494 51.5786 16.3278 51.6913H16.5536C17.0382 51.6913 18.0758 51.03 19.581 46.7485C19.5824 46.7449 19.5838 46.7378 19.5851 46.731C19.5862 46.7255 19.5872 46.7203 19.5882 46.7173L21.249 42.3153C21.6849 41.1393 22.7737 40.3655 23.9855 40.3707C24.0033 40.3707 24.021 40.3694 24.0396 40.3699C25.2704 40.3848 26.3596 41.2013 26.7626 42.4116L28.2302 46.7587C29.5024 50.3772 30.6271 51.6917 31.2542 51.6917H31.4783C32.2994 51.5791 33.4892 50.9033 34.5606 48.2276C35.3491 46.2717 35.9399 43.6225 36.4205 39.9143C33.9928 36.6876 32.6836 32.8062 32.3725 28.3577C32.294 27.2314 32.3043 26.0988 32.3146 24.9661V24.966C32.3197 24.4114 32.3247 23.8568 32.3194 23.3029C32.3145 22.7894 32.5459 22.4468 32.9849 22.1884C34.4031 21.3525 35.8174 20.5104 37.2319 19.6681L37.2327 19.6676L37.2341 19.6668C38.1074 19.1468 38.9807 18.6268 39.855 18.1082C40.8293 17.5304 41.805 16.9548 42.7809 16.3794C42.6835 15.891 42.5617 15.4076 42.4153 14.9308C41.3634 11.3902 39.0848 8.8174 36.1618 7.86713ZM43.1617 40.9223H43.4982C43.6749 40.8384 43.8534 40.7577 44.032 40.6769C44.4132 40.5044 44.7946 40.3319 45.159 40.1287C47.7891 38.6608 49.6669 36.503 50.8998 33.772C51.7804 31.8229 52.1865 29.7694 52.1887 27.6335C52.1891 27.3417 52.1886 27.0498 52.1881 26.758C52.187 26.195 52.186 25.6321 52.1915 25.0691C52.1955 24.7034 52.0524 24.4493 51.7344 24.2609C49.8966 23.1724 48.061 22.0804 46.2255 20.9885C45.4202 20.5094 44.6149 20.0303 43.8095 19.5516C43.739 19.5097 43.6661 19.4716 43.5931 19.4335C43.5616 19.4171 43.5301 19.4006 43.4988 19.3839H43.1622C42.7847 19.6067 42.4071 19.8293 42.0295 20.0519C41.2322 20.5218 40.4351 20.9917 39.6392 21.4637C39.0392 21.8196 38.4399 22.1764 37.8405 22.5333C36.87 23.1112 35.8996 23.689 34.9266 24.2626C34.6254 24.4398 34.4666 24.6748 34.47 25.0271C34.4737 25.407 34.4702 25.7875 34.4668 26.1679C34.4597 26.9449 34.4526 27.7219 34.5065 28.4945C34.8492 33.3956 36.9581 37.2933 41.1755 39.9385C41.6018 40.2058 42.0641 40.416 42.5263 40.6262C42.7393 40.7231 42.9522 40.8199 43.1617 40.9223ZM41.5576 31.2101C41.6597 31.3135 41.763 31.4182 41.8682 31.5245C42.238 31.1535 42.6014 30.7886 42.9618 30.4268C43.294 30.0933 43.6235 29.7624 43.9531 29.4318C44.5819 28.8013 45.2106 28.1709 45.8422 27.5438C46.0823 27.306 46.4154 27.251 46.6919 27.3912C46.9629 27.5287 47.1283 27.8113 47.0689 28.1226C47.0391 28.2775 46.9578 28.4474 46.8473 28.559C45.3677 30.0527 43.8802 31.5391 42.3899 33.0226C42.0752 33.3362 41.6579 33.3295 41.341 33.0176C40.8266 32.5111 40.3168 32.0001 39.8092 31.4863C39.5052 31.179 39.4962 30.7387 39.7778 30.4509C40.0672 30.1553 40.5086 30.1621 40.8272 30.4762C41.0705 30.7163 41.3105 30.9596 41.5576 31.2101Z" fill="#1976D2"/>
<path d="M78.4 16.536H69.984V39H78.4C85.568 39 90.176 34.424 90.176 27.768C90.176 21.08 85.568 16.536 78.4 16.536ZM75.456 34.264V21.208H78.048C82.176 21.208 84.608 23.64 84.608 27.768C84.608 31.896 82.176 34.264 78.048 34.264H75.456ZM102.386 25.272C104.21 25.272 105.746 26.392 105.746 28.344H98.898C99.218 26.36 100.594 25.272 102.386 25.272ZM110.93 33.08H105.106C104.658 34.04 103.794 34.808 102.258 34.808C100.498 34.808 99.058 33.72 98.866 31.384H111.25C111.314 30.84 111.346 30.296 111.346 29.784C111.346 24.344 107.666 20.888 102.45 20.888C97.138 20.888 93.426 24.408 93.426 30.072C93.426 35.736 97.202 39.256 102.45 39.256C106.898 39.256 110.066 36.568 110.93 33.08ZM127.833 39H133.273V28.568C133.273 23.768 130.521 20.952 126.393 20.952C123.993 20.952 122.073 22.008 120.985 23.512V21.144H115.513V39H120.985V29.304C120.985 26.872 122.329 25.528 124.409 25.528C126.489 25.528 127.833 26.872 127.833 29.304V39ZM137.267 30.072C137.267 35.736 140.979 39.256 146.227 39.256C150.707 39.256 153.875 36.664 154.803 32.536H148.979C148.499 33.848 147.635 34.584 146.131 34.584C144.179 34.584 142.835 33.048 142.835 30.072C142.835 27.096 144.179 25.56 146.131 25.56C147.635 25.56 148.531 26.36 148.979 27.608H154.803C153.875 23.352 150.707 20.888 146.227 20.888C140.979 20.888 137.267 24.44 137.267 30.072ZM157.922 30.04C157.922 35.672 161.41 39.256 165.762 39.256C168.418 39.256 170.306 38.04 171.298 36.472V39H176.77V21.144H171.298V23.672C170.338 22.104 168.45 20.888 165.794 20.888C161.41 20.888 157.922 24.408 157.922 30.04ZM171.298 30.072C171.298 32.92 169.474 34.488 167.394 34.488C165.346 34.488 163.49 32.888 163.49 30.04C163.49 27.192 165.346 25.656 167.394 25.656C169.474 25.656 171.298 27.224 171.298 30.072ZM187.481 30.712C187.481 27.64 188.985 26.744 191.577 26.744H193.081V20.952C190.681 20.952 188.729 22.232 187.481 24.12V21.144H182.009V39H187.481V30.712ZM204.849 25.272C206.673 25.272 208.209 26.392 208.209 28.344H201.361C201.681 26.36 203.057 25.272 204.849 25.272ZM213.393 33.08H207.569C207.121 34.04 206.257 34.808 204.721 34.808C202.961 34.808 201.521 33.72 201.329 31.384H213.713C213.777 30.84 213.809 30.296 213.809 29.784C213.809 24.344 210.129 20.888 204.913 20.888C199.601 20.888 195.889 24.408 195.889 30.072C195.889 35.736 199.665 39.256 204.913 39.256C209.361 39.256 212.529 36.568 213.393 33.08Z" fill="#2C333A"/>
</svg>
