<svg width="104" height="105" viewBox="0 0 104 105" fill="none" xmlns="http://www.w3.org/2000/svg">
<path fill-rule="evenodd" clip-rule="evenodd" d="M15.9805 57.3443C15.9805 42.8088 27.757 31.0254 42.2841 31.0254C56.8111 31.0254 68.5877 42.8088 68.5877 57.3443C68.5877 71.8799 56.8111 83.6633 42.2841 83.6633C27.757 83.6633 15.9805 71.8799 15.9805 57.3443Z" fill="#1976D2"/>
<path fill-rule="evenodd" clip-rule="evenodd" d="M33.0326 14.3048C33.0326 11.6403 35.1913 9.48032 37.8542 9.48032C40.5172 9.48032 42.6759 11.6403 42.6759 14.3048C42.6759 16.9693 40.5172 19.1292 37.8542 19.1292C35.1913 19.1292 33.0326 16.9693 33.0326 14.3048Z" fill="#1976D2"/>
<path fill-rule="evenodd" clip-rule="evenodd" d="M103.145 18.9876C103.145 20.5645 102.795 22.1414 102.269 23.5431C101.219 26.5217 100.168 29.5003 99.1174 32.4788C98.2418 34.9318 97.3662 37.5599 96.4907 40.0129C96.3156 40.7137 95.9653 41.4146 95.7902 42.1154C95.9653 42.641 95.9653 42.9914 95.7902 43.5171C95.2649 46.6709 94.2142 49.8246 92.2879 52.2776C90.887 54.2049 88.4354 56.1322 85.9838 56.4826H85.8087C85.2833 79.7856 66.1958 98.5331 42.9055 98.5331C19.265 98.5331 0.00235481 79.26 0.00235481 55.6066C0.00235481 36.5087 12.7857 19.5133 30.9977 14.257C30.9977 14.6074 30.9977 14.7826 30.9977 15.133C30.9977 16.5347 31.523 17.586 32.2235 18.6372C15.9378 23.1927 4.55535 38.2608 4.55535 55.4314C4.55535 76.6318 21.8917 93.9777 43.0806 93.9777C64.0944 93.9777 81.0806 77.1575 81.6059 56.3074H80.0299C79.3294 56.1322 78.6289 55.7818 77.9285 55.4314C75.4769 53.8545 73.5506 51.4015 72.4999 48.5982C71.7995 47.0213 71.2741 45.2692 70.9239 43.5171C70.7488 42.9914 70.9239 42.2906 71.099 41.765C68.9976 35.2822 66.8962 28.9746 64.97 23.0175C63.9193 19.6885 64.2695 15.8338 65.8455 12.8553C67.2465 10.2271 69.6981 8.29979 72.3248 7.59895C72.8501 7.42374 73.2004 7.24854 73.7257 7.07332C74.6013 6.7229 75.3018 6.37248 76.1773 6.37248C77.228 6.19727 78.1036 6.54768 78.804 7.24854C79.3294 7.77417 79.6796 8.65022 79.6796 9.70148C79.6796 11.804 77.7534 13.0305 75.8271 13.0305H75.652C74.9515 13.0305 74.4262 12.8553 73.9008 12.5048C73.5506 12.3296 73.3755 12.3296 73.2004 12.1544C72.4999 11.9792 71.9745 12.5048 71.2741 13.0305C68.8225 15.3082 68.122 18.1116 68.9976 21.0902C71.099 27.9234 73.5506 34.4061 75.4769 39.4872C75.4769 39.6624 75.652 40.0129 75.652 40.1881C76.3524 40.7137 76.8778 41.4146 77.0529 42.2906C77.0529 42.4658 77.4031 44.0427 78.1036 45.7948L78.4538 46.4957C79.6796 48.7734 81.0805 49.9999 83.0068 50.1751H83.1819H83.357C84.4077 50.1751 88.2602 49.6494 89.3109 42.2906C89.486 41.2393 90.1865 40.3633 91.0621 39.8377C92.2879 36.5087 93.6888 33.0045 94.9146 29.5003C95.2648 28.6242 95.6151 27.9234 95.9653 27.0473C97.5414 23.3679 99.1174 19.3381 97.7165 16.0091C96.6658 13.5561 95.44 12.1544 94.2142 12.1544C93.8639 12.1544 93.3386 12.3296 92.9883 12.5048C92.463 12.6801 91.7626 13.0305 91.0621 13.0305C90.5368 13.0305 90.1865 12.8553 89.6612 12.6801C88.4354 11.9792 87.7349 11.1032 87.5598 10.0519C87.3847 8.82544 88.0852 7.59897 89.4861 6.72291C90.0114 6.37249 90.5367 6.19728 91.0621 6.19728C92.2879 6.19728 93.5137 6.89812 94.3893 7.42375C94.5644 7.59897 94.7395 7.59897 94.9146 7.77417C96.4907 8.65022 98.2418 9.52628 99.8178 10.928C102.269 12.6801 103.32 15.6586 103.145 18.9876V18.9876Z" fill="#1976D2"/>
<path fill-rule="evenodd" clip-rule="evenodd" d="M40.6426 63.7868V67.3H27.2528C27.3626 65.9826 27.8016 64.6651 28.5699 63.4574C29.3381 62.2497 30.7649 60.6029 32.8502 58.6267C34.6062 56.9798 35.594 55.8819 36.033 55.333C36.5817 54.5645 36.8012 53.7959 36.8012 53.0274C36.8012 52.1491 36.5817 51.4904 36.1427 51.0512C35.7037 50.612 35.0452 50.3925 34.277 50.3925C33.5087 50.3925 32.8502 50.612 32.4112 51.161C31.9722 51.6001 31.6429 52.4784 31.6429 53.5763L27.8016 53.247C28.0211 51.161 28.7894 49.6239 29.9966 48.7456C31.2039 47.8673 32.7404 47.3183 34.4965 47.3183C36.472 47.3183 38.0085 47.8673 39.1061 48.9652C40.2036 50.0631 40.7523 51.3806 40.7523 52.9176C40.7523 53.7959 40.6426 54.6742 40.3133 55.4428C39.9841 56.2113 39.4353 57.0896 38.7768 57.9679C38.3378 58.5169 37.4598 59.3952 36.2525 60.4931C35.0452 61.591 34.277 62.3595 33.9477 62.6888C33.6185 63.0182 33.3989 63.4574 33.1794 63.7867L40.6426 63.7868Z" fill="white"/>
<path fill-rule="evenodd" clip-rule="evenodd" d="M50.7313 59.9428V53.1366L46.1234 59.9428H50.7313ZM50.7321 67.4076V63.3459H42.6133V59.9428L51.2806 47.3184H54.4623V60.0525H56.9857V63.4556H54.4623V67.5174H50.7321V67.4076Z" fill="white"/>
</svg>
