<svg width="63" height="63" viewBox="0 0 63 63" fill="none" xmlns="http://www.w3.org/2000/svg">
<rect width="63" height="63" rx="31.5" fill="#E3F2FD"/>
<path fill-rule="evenodd" clip-rule="evenodd" d="M43.1864 42.5721H41.9683V43.7869C41.9683 44.2623 41.5446 44.6849 41.068 44.6849C40.5913 44.6849 40.1676 44.2623 40.1676 43.7869V42.5721H38.9495C38.4728 42.5721 38.0491 42.1495 38.0491 41.6741C38.0491 41.1987 38.4728 40.7762 38.9495 40.7762H40.1676V39.5613C40.1676 39.0859 40.5913 38.6634 41.068 38.6634H41.1209C41.5976 38.6634 42.0213 39.0859 42.0213 39.5613V40.7762H43.2394C43.5042 40.7762 43.716 40.8818 43.8749 41.0403C44.0338 41.1987 44.1397 41.41 44.1397 41.6741C44.0868 42.2023 43.6631 42.5721 43.1864 42.5721ZM46.9467 39.8783C46.8408 39.086 46.4701 38.3994 45.8875 37.8712C45.5168 37.5014 45.0931 37.1845 44.6694 36.9732C43.2394 36.1809 41.6505 35.4943 40.0087 34.9132C39.9028 34.8604 39.7969 34.8604 39.691 34.8076C39.585 34.7548 39.4262 34.7019 39.3202 34.7019C38.9495 34.5963 38.5258 34.4907 38.1551 34.385C38.0492 34.5435 37.9432 34.7548 37.7843 34.9132C37.4136 35.4414 37.0429 35.9168 36.7251 36.445C36.1425 37.2373 35.6129 37.9768 35.0303 38.7163C34.7126 39.1388 34.3948 39.5086 34.077 39.9311L34.0241 39.984C34.0241 39.984 34.0241 39.984 34.0241 40.0368C33.9711 40.1424 33.9181 40.1952 33.8122 40.3009C33.8122 40.1424 33.7593 39.9311 33.7593 39.7727C33.5474 38.2409 33.3885 36.9732 33.3885 36.7619V36.7091C33.4415 36.5507 33.4944 36.3922 33.6004 36.2866V36.2337L33.6533 36.1809C33.7063 36.1281 33.7063 36.0225 33.7593 35.9696L33.8122 35.9168V35.864L33.8652 35.8112C33.9181 35.7055 33.9711 35.5471 33.9711 35.3886C33.9711 35.2302 33.9181 35.1245 33.8652 35.0189L33.8122 34.9132C33.8122 34.9132 33.8122 34.9132 33.8122 34.8604C33.8122 34.8076 33.7593 34.8076 33.7593 34.7548C33.7063 34.702 33.7063 34.6491 33.6533 34.6491C33.6004 34.5963 33.4944 34.5963 33.4415 34.5963H33.3356C33.2826 34.5963 33.2296 34.5963 33.2296 34.5963C33.1767 34.5963 33.0178 34.5963 32.8589 34.5963C32.753 34.5963 32.6471 34.5963 32.4882 34.5963C32.2763 34.5963 32.1174 34.5963 31.9586 34.5963C31.9056 34.5963 31.8526 34.5963 31.8526 34.5963C31.7997 34.5963 31.7997 34.5963 31.7997 34.5963H31.7467C31.6937 34.5963 31.6408 34.5963 31.6408 34.5963H31.5878C31.5878 34.5963 31.5878 34.5963 31.5349 34.5963C31.5349 34.5963 31.4819 34.5963 31.4289 34.5963H31.323C31.27 34.5963 31.2171 34.5963 31.1112 34.6491C31.0582 34.702 31.0052 34.702 31.0052 34.7548C30.9523 34.8076 30.9523 34.8604 30.9523 34.8604V34.9132L30.6875 34.8604C30.6345 34.9661 30.5815 35.0717 30.5815 35.2302C30.5815 35.3886 30.6345 35.5471 30.6875 35.6527L30.7404 35.7055C30.7404 35.7055 30.7404 35.7055 30.7404 35.7584L30.7934 35.8112C30.8464 35.864 30.8464 35.9696 30.8993 36.0225L30.9523 36.0753V36.1281C31.0052 36.2865 31.0582 36.3922 31.1641 36.5506V36.6035C31.1641 36.7619 31.0052 38.0824 30.7934 39.6142C30.7934 39.7727 30.7404 39.9839 30.7404 40.1424C30.6875 40.0368 30.6345 39.9839 30.5286 39.8783C30.1579 39.4557 29.8401 39.0332 29.4694 38.5578C28.8868 37.8183 28.3042 37.0788 27.7746 36.2865C27.2979 35.5999 26.8213 34.966 26.3446 34.2266C25.815 34.3322 25.3383 34.4907 24.8087 34.6491C23.061 35.2301 21.3662 35.9696 19.8303 36.8147C19.3537 37.0788 18.9829 37.3429 18.6122 37.7127C18.0826 38.2937 17.6589 38.9275 17.553 39.7198C17.553 39.8783 17.5 39.9839 17.5 40.1424V44.7906C17.8707 47.7485 19.7244 47.7485 19.8303 47.7485H44.7753C44.7753 47.7485 44.7753 47.7485 44.8283 47.7485H44.8812C45.0931 47.6957 45.4638 47.6428 45.8875 47.3259C45.9405 47.2731 45.9934 47.2203 46.0464 47.2203L46.0993 47.1675C46.2582 47.009 46.4171 46.7977 46.523 46.5865C46.576 46.5336 46.576 46.4808 46.576 46.428C46.576 46.3752 46.629 46.3224 46.629 46.2695C46.7878 45.8998 46.8938 45.4772 46.9467 44.949V40.3009C46.9467 40.1424 46.9467 39.9839 46.9467 39.8783L46.9467 39.8783Z" fill="#1976D2"/>
<path fill-rule="evenodd" clip-rule="evenodd" d="M38.6292 22.7098V21.0229H37.7835C37.8364 21.2865 37.8892 21.55 37.8892 21.8663C37.8892 22.1826 37.8364 22.4462 37.7835 22.7098H38.6292Z" fill="#1976D2"/>
<path fill-rule="evenodd" clip-rule="evenodd" d="M26.1334 21.0229V22.7098H31.6924C31.6395 22.4462 31.5865 22.1826 31.5865 21.8663C31.5865 21.55 31.6395 21.2865 31.6924 21.0229H26.1334Z" fill="#1976D2"/>
<path fill-rule="evenodd" clip-rule="evenodd" d="M34.7121 22.6059C34.3414 22.6059 33.9707 22.289 33.9707 21.8664C33.9707 21.4967 34.2884 21.1269 34.7121 21.1269C35.1358 21.1269 35.4536 21.4439 35.4536 21.8664C35.4536 22.2362 35.1358 22.6059 34.7121 22.6059ZM34.7119 19.437C33.6526 19.437 32.7523 20.1237 32.3815 21.0216C32.2756 21.2857 32.2227 21.5498 32.2227 21.8667C32.2227 22.1837 32.2756 22.4478 32.3815 22.7119C32.7523 23.6626 33.6526 24.2965 34.7119 24.2965C35.7711 24.2965 36.6714 23.6098 37.0422 22.7119C37.1481 22.4478 37.2011 22.1837 37.2011 21.8667C37.2011 21.5498 37.1481 21.2857 37.0422 21.0216C36.6714 20.0709 35.7711 19.437 34.7119 19.437Z" fill="#1976D2"/>
<path fill-rule="evenodd" clip-rule="evenodd" d="M25.3924 24.4554C25.3924 24.6667 25.4454 24.878 25.4454 25.0893C25.4454 25.195 25.4983 25.3006 25.4983 25.4063C25.6042 26.3572 26.0808 27.0439 26.7693 27.4137C26.8222 27.4137 26.8222 27.4665 26.8222 27.4665C27.4577 29.8966 29.4171 31.7455 31.6943 32.1153C31.9591 32.1681 32.2238 32.1681 32.4886 32.1681C34.2362 32.1681 35.8249 31.2172 36.8841 29.5268C37.0959 29.2098 37.2548 28.84 37.4666 28.4174C37.5195 28.2589 37.5725 28.1005 37.6255 27.942C37.6784 27.7307 37.7314 27.625 37.7843 27.5194C37.8902 27.4137 37.9962 27.3081 38.155 27.2024L38.3669 27.0439C38.8964 26.5157 39.0553 25.9346 39.1083 25.4063C39.1083 25.3006 39.1612 25.195 39.1612 25.0893C39.2142 24.878 39.2142 24.6667 39.2142 24.4554C39.2142 24.2969 39.2142 24.1385 39.2142 23.98V23.9271C39.2142 23.7158 39.1612 23.4517 39.1083 23.2404H37.6255C37.5725 23.2932 37.5725 23.3461 37.5195 23.3989C37.7314 23.5045 37.9432 23.5574 38.0491 23.5574C38.1021 23.6102 38.155 23.7158 38.155 23.8215V23.8743V23.98C38.155 24.0856 38.155 24.2441 38.155 24.3498C38.155 24.5082 38.1021 24.7196 38.1021 24.878C38.1021 24.9837 38.0491 25.0893 38.0491 25.2478C37.9962 25.7233 37.8902 25.9874 37.6784 26.1459C37.6255 26.1987 37.5725 26.2515 37.4666 26.3044L37.4136 26.3572C37.3607 26.41 37.3607 26.4628 37.3607 26.5157C37.2548 26.727 37.0429 27.1496 37.0429 27.1496C36.7252 27.942 36.3545 28.7344 35.772 29.3683C34.8187 30.5833 33.4948 31.1644 32.065 30.9531C31.4295 30.8474 30.847 30.6361 30.3174 30.2664C29.3642 29.7909 28.5698 28.7344 28.1462 27.7835C28.0932 27.6778 27.7755 26.7798 27.6166 26.4628L27.5636 26.41C27.5636 26.41 27.5107 26.41 27.5107 26.3572C27.0341 26.093 26.8752 25.5119 26.8752 25.195C26.8752 25.0893 26.8222 24.9837 26.8222 24.8252C26.7693 24.6667 26.7693 24.4554 26.7693 24.2969C26.7693 24.1913 26.7693 24.0328 26.7693 23.9271V23.8215C26.7693 23.7158 26.8222 23.5574 26.8222 23.5574C26.8752 23.5574 26.9281 23.5574 26.9281 23.5574C26.9811 23.5574 27.0341 23.5574 27.087 23.5574C27.14 23.5574 27.1929 23.5574 27.2459 23.5574L27.4048 23.5045C27.5107 23.4517 27.5636 23.3989 27.6166 23.2932C27.6166 23.2932 27.6166 23.2404 27.6695 23.2404H25.7631C25.6572 23.4517 25.6572 23.663 25.6572 23.9271V23.98C25.3924 24.1385 25.3924 24.2969 25.3924 24.4554H25.3924Z" fill="#1976D2"/>
<path fill-rule="evenodd" clip-rule="evenodd" d="M31.9584 20.44C32.488 19.4365 33.5471 18.6971 34.7651 18.6971C35.9831 18.6971 37.0422 19.3837 37.5717 20.44H38.6308C38.6308 20.2815 38.6838 20.1231 38.6838 19.9647C38.7367 18.0633 37.7835 16.5316 36.089 15.7922C35.8771 15.6866 35.7183 15.6338 35.5594 15.581C34.4474 15.1584 33.3882 15 32.2762 15C32.0644 15 31.7996 15 31.5878 15C30.8993 15.0528 29.9991 15.1056 29.2048 15.4753C29.0989 15.5281 29.0459 15.581 28.94 15.581C28.6223 15.7922 28.3575 16.0035 28.1986 16.3732H28.1457C27.8279 16.5845 27.5632 16.8485 27.3513 17.1126C27.0336 17.2711 26.7688 17.4823 26.557 17.7992C26.2922 18.2217 26.1863 18.8027 26.1334 19.4365C26.1334 19.8062 26.1334 20.1231 26.1334 20.44H31.9585L31.9584 20.44Z" fill="#1976D2"/>
</svg>
